<?xml version="1.0" encoding="UTF-8"?>
<svg id="Capa_1" xmlns="http://www.w3.org/2000/svg" version="1.1" viewBox="0 0 512.09 512.09">
  <!-- Generator: Adobe Illustrator 30.0.0, SVG Export Plug-In . SVG Version: 2.1.1 Build 123)  -->
  <defs>
    <style>
      .st0 {
        fill: #ffa000;
      }

      .st1 {
        fill: #f44336;
      }

      .st2 {
        fill: #ffe082;
      }

      .st3 {
        fill: #455a64;
      }
    </style>
  </defs>
  <path class="st0" d="M372.6,413.82l-108.3-273.84c-1.2-3.02-3.95-5.13-7.17-5.51l-167.84-19.75c-4.76-.67-9.17,2.65-9.84,7.41-.01.11-.03.22-.04.32l-35.33,282.68c-.63,4.84,2.78,9.27,7.61,9.9.07,0,.14.02.21.02l309.18,35.33h1.01c4.57.02,8.4-3.45,8.83-8l2.3-24.5c.12-1.38-.09-2.78-.62-4.06Z"/>
  <path class="st2" d="M432.76,122.45c-.57-4.85-4.95-8.31-9.8-7.75-.03,0-.05,0-.08,0l-75.97,8.94-224.37,26.39c-4.8.55-8.28,4.85-7.79,9.66l26.5,282.68c.43,4.55,4.26,8.02,8.83,8h1.01l309.18-35.33c4.85-.56,8.33-4.94,7.77-9.78,0-.04,0-.07-.01-.11l-35.26-282.71Z"/>
  <path class="st3" d="M300.25,185.38c-4.88,0-8.84-3.94-8.85-8.82,0-2.35.93-4.61,2.6-6.27l44.17-44.17c3.39-3.51,8.98-3.61,12.49-.22,3.51,3.39,3.61,8.98.22,12.49-.07.07-.14.15-.22.22l-44.17,44.17c-1.65,1.66-3.9,2.59-6.24,2.6Z"/>
  <circle class="st1" cx="370.92" cy="105.87" r="44.17"/>
</svg>