<svg width="19" height="18" viewBox="0 0 19 18" fill="none" xmlns="http://www.w3.org/2000/svg">
<path d="M17 9.74998H16.25C16.25 6.84748 13.9025 4.49998 11 4.49998H10.25V3.54748C10.4781 3.4158 10.6675 3.22638 10.7991 2.99828C10.9308 2.77017 11.0001 2.51143 11 2.24806C10.9999 1.98469 10.9305 1.72598 10.7987 1.49794C10.667 1.26991 10.4775 1.08059 10.2493 0.949021C10.0212 0.817453 9.76241 0.748275 9.49904 0.748444C9.23567 0.748613 8.97698 0.818122 8.749 0.949983C8.52102 1.08184 8.33177 1.27141 8.20029 1.49961C8.06881 1.72781 7.99973 1.98661 8 2.24998C8 2.80498 8.3 3.29248 8.75 3.54748V4.49998H8C5.0975 4.49998 2.75 6.84748 2.75 9.74998H2C1.5875 9.74998 1.25 10.0875 1.25 10.5V12.75C1.25 13.1625 1.5875 13.5 2 13.5H2.75V14.25C2.75 14.6478 2.90804 15.0293 3.18934 15.3106C3.47064 15.5919 3.85218 15.75 4.25 15.75H14.75C15.5825 15.75 16.25 15.0825 16.25 14.25V13.5H17C17.4125 13.5 17.75 13.1625 17.75 12.75V10.5C17.75 10.0875 17.4125 9.74998 17 9.74998ZM7.895 11.76L7.01 12.645L6.125 11.76L5.24 12.645L4.355 11.76L5.24 10.875L4.355 9.98998L5.24 9.10498L6.125 9.98998L7.01 9.10498L7.895 9.98998L7.01 10.875L7.895 11.76ZM14.645 11.76L13.76 12.645L12.875 11.76L11.99 12.645L11.105 11.76L11.99 10.875L11.105 9.98998L11.99 9.10498L12.875 9.98998L13.76 9.10498L14.645 9.98998L13.76 10.875L14.645 11.76Z" />
</svg>
