<svg width="18" height="18" viewBox="0 0 18 18" fill="none" xmlns="http://www.w3.org/2000/svg">
    <path
        d="M15 2.25H3C2.80109 2.25 2.61032 2.32902 2.46967 2.46967C2.32902 2.61032 2.25 2.80109 2.25 3V4.67025L2.256 4.8375C2.29336 5.33829 2.49717 5.81219 2.835 6.18375L6 9.6645V15.75C5.99997 15.8688 6.02818 15.986 6.08231 16.0918C6.13644 16.1976 6.21493 16.289 6.31132 16.3585C6.40771 16.428 6.51924 16.4736 6.63672 16.4916C6.75419 16.5095 6.87425 16.4993 6.987 16.4618L11.487 14.9618L11.568 14.9295C11.6972 14.869 11.8064 14.773 11.8829 14.6526C11.9594 14.5323 12 14.3926 12 14.25V9.3105L15.0907 6.2205C15.2999 6.01144 15.4657 5.7632 15.5789 5.48999C15.692 5.21678 15.7501 4.92395 15.75 4.62825V3C15.75 2.80109 15.671 2.61032 15.5303 2.46967C15.3897 2.32902 15.1989 2.25 15 2.25Z" />
</svg>