<?xml version="1.0" encoding="UTF-8"?>
<svg id="_图层_1" data-name="图层 1" xmlns="http://www.w3.org/2000/svg" viewBox="0 0 240 240">
  <defs>
    <style>
      .cls-1 {
        fill: #fafbfc;
      }

      .cls-2 {
        fill: #0ed678;
      }
    </style>
  </defs>
  <path class="cls-2" d="M132.01,7.63l24.57,24.06,34.39.36c9.34.1,16.89,7.65,16.99,16.99l.36,34.39,24.06,24.57c6.54,6.67,6.54,17.35,0,24.02l-24.06,24.57-.36,34.39c-.1,9.34-7.65,16.89-16.99,16.99l-34.39.36-24.57,24.06c-6.67,6.54-17.35,6.54-24.02,0l-24.57-24.06-34.39-.36c-9.34-.1-16.89-7.65-16.99-16.99l-.36-34.39-24.06-24.57c-6.54-6.67-6.54-17.35,0-24.02l24.06-24.57.36-34.39c.1-9.34,7.65-16.89,16.99-16.99l34.39-.36,24.57-24.06c6.67-6.54,17.35-6.54,24.02,0Z"/>
  <path class="cls-1" d="M106.16,163.24c-4.54,0-8.8-1.77-12.01-4.97l-41.55-41.55,14.73-14.73,38.82,38.82,66.49-66.49,14.73,14.73-69.22,69.22c-3.21,3.21-7.47,4.97-12.01,4.97Z"/>
</svg>