<svg id="图层_1" data-name="图层 1" xmlns="http://www.w3.org/2000/svg" viewBox="0 0 64 64">
  <g>
    <path d="M5.77,18.22c0-2.8.14-5.61,0-8.41-.15-2.4.89-3.46,3.17-3.46H25.74a3.52,3.52,0,0,1,3.88,3.89c0,5.37.09,10.74,0,16.12,0,2.53-1.15,4-4.11,3.9-5.48-.19-11-.14-16.46,0-2.42,0-3.39-.79-3.27-3.24C5.89,24.07,5.77,21.15,5.77,18.22Z" style="fill: #7178ff"/>
    <path d="M5.77,46.33c0-2.92.12-5.84,0-8.75-.11-2.1.88-3.08,2.8-3.11q8.75-.13,17.51,0c2.35,0,3.56,1.48,3.58,3.81,0,5.35.07,10.71,0,16.1-.05,2.52-1.11,4-4.07,3.92-5.48-.17-11-.13-16.45,0-2.37.05-3.43-.7-3.3-3.19C5.89,52.16,5.77,49.24,5.77,46.33Z" style="fill: #5153fe"/>
    <path d="M33.85,46c0-2.68.14-5.38,0-8s1.11-3.5,3.5-3.5H53.76c2.53,0,3.89,1.32,3.93,3.84.05,5.36.08,10.73,0,16.12,0,2.53-1.1,4-4.06,3.93-5.37-.17-10.74-.08-16.13,0-2.48,0-3.65-1.12-3.65-3.58Z" style="fill: #1a2587"/>
    <path d="M54.09,6.37c-5.67-.09-11.34-.07-17,0-1.8,0-3,.75-3,2.92.07,6,0,12,.12,18.05,0,.86,1.25,1.68,1.95,2.51v0c5.71.05,11.42-.08,17.13.11,3.13.1,4.4-1.27,4.35-4.22q.06-7.63.09-15.26C57.73,8.05,56.64,6.41,54.09,6.37Z" style="fill: #a9b1ff"/>
  </g>
</svg>
