<svg id="Discussion" viewBox="0 0 64 64" xmlns="http://www.w3.org/2000/svg"><path d="m54 18h-24c-4.41 0-8 3.59-8 8v18c0 4.41 3.59 8 8 8h13.33l7.47 5.6c.35.26.78.4 1.2.4.3 0 .61-.07.89-.21.68-.34 1.11-1.03 1.11-1.79v-4c4.41 0 8-3.59 8-8v-18c0-4.41-3.59-8-8-8z" fill="#4257ff"/><path d="m34 6h-24c-4.41 0-8 3.59-8 8v18c0 4.41 3.59 8 8 8v4c0 .76.43 1.45 1.11 1.79.28.14.59.21.89.21.42 0 .85-.14 1.2-.4l7.47-5.6h13.33c4.41 0 8-3.59 8-8v-18c0-4.41-3.59-8-8-8z" fill="#ced3ed"/><g fill="#4257ff"><path d="m22 20h-9c-1.1 0-2-.9-2-2s.9-2 2-2h9c1.1 0 2 .9 2 2s-.9 2-2 2z"/><path d="m31 30h-18c-1.1 0-2-.9-2-2s.9-2 2-2h18c1.1 0 2 .9 2 2s-.9 2-2 2z"/></g></svg>