<svg id="图层_1" data-name="图层 1" xmlns="http://www.w3.org/2000/svg" viewBox="0 0 64 64">
  <g>
    <g>
      <path d="M10.51,47.72l.38.24-.14-.22Z" style="fill: #5153fe"/>
      <path d="M60.24,13.83C59.3,9.55,55.59,5.59,51.4,4a12.92,12.92,0,0,1,.73,2.23,69.78,69.78,0,0,1,1.41,14.33,69.07,69.07,0,0,1-1.41,14.33c-1.23,5.6-6.66,10.72-12.27,11.81a91.91,91.91,0,0,1-9.42,1.08c-.45.7-.93,1.45-1.46,2.24-1.14,1.73-2.13,3.16-3,4.37,1.31,1.92,2.36,3.36,3.21,4.43,1.78,2.27,4.39,2.27,6.18,0,1.07-1.37,2.49-3.32,4.35-6.13.46-.7.89-1.36,1.29-2,3.49-.26,6.71-.63,8.35-.95A14.71,14.71,0,0,0,60.25,39.24,62,62,0,0,0,61.5,26.53,61.8,61.8,0,0,0,60.24,13.83Z" style="fill: #f9a755"/>
      <path d="M30.44,47.74a91.91,91.91,0,0,0,9.42-1.08c5.61-1.09,11-6.21,12.27-11.81a69.07,69.07,0,0,0,1.41-14.33A69.78,69.78,0,0,0,52.13,6.19,12.92,12.92,0,0,0,51.4,4a11.59,11.59,0,0,0-2-.6,113.28,113.28,0,0,0-34.16,0A14.7,14.7,0,0,0,4.33,13.83a61.1,61.1,0,0,0-1.26,12.7A61.29,61.29,0,0,0,4.33,39.24a14.43,14.43,0,0,0,6.18,8.48l.24,0,.14.22a13.07,13.07,0,0,0,4.32,1.75c1.64.32,4.85.69,8.35.95.39.62.82,1.29,1.29,2s.78,1.17,1.14,1.7c.86-1.21,1.85-2.64,3-4.37C29.51,49.19,30,48.44,30.44,47.74Z" style="fill: #5153fe"/>
    </g>
    <path d="M35.51,43.49a1.93,1.93,0,0,1-.51.94,1.82,1.82,0,0,1-.94.51,11.8,11.8,0,0,1-3.56,0,1.86,1.86,0,0,1-.94-.51,1.83,1.83,0,0,1-.5-.94,11.13,11.13,0,0,1,0-3.55,1.87,1.87,0,0,1,.5-.94,1.86,1.86,0,0,1,.94-.51,11.8,11.8,0,0,1,3.56,0A1.82,1.82,0,0,1,35,39a1.93,1.93,0,0,1,.51.94,11.8,11.8,0,0,1,0,3.56Zm6.94-18.68a13.56,13.56,0,0,1-4.15,3.57c-2.47,1.53-2.87,2.15-2.87,3.38v.49a3.18,3.18,0,0,1-.22,1.22,3.15,3.15,0,0,1-1.71,1.75,3.2,3.2,0,0,1-1.22.24,3.16,3.16,0,0,1-1.22-.24,3.34,3.34,0,0,1-1-.7,3.14,3.14,0,0,1-.67-1.05,3,3,0,0,1-.23-1.22V31.12a6.36,6.36,0,0,1,1.11-3.75,10.46,10.46,0,0,1,3.4-2.93c3-1.73,3.5-2.71,3.5-4,0-1.62-1.39-2.67-3.54-2.67A4.31,4.31,0,0,0,29,20.93a3.32,3.32,0,0,1-3.2,2.32H25.6a3.27,3.27,0,0,1-1.46-.44,3.32,3.32,0,0,1-1.1-1,3.2,3.2,0,0,1-.54-1.4,3.27,3.27,0,0,1,.12-1.49,10.26,10.26,0,0,1,4-5.39,12.34,12.34,0,0,1,7-2A11.12,11.12,0,0,1,40.8,14a8.26,8.26,0,0,1,3,6.38A7.39,7.39,0,0,1,42.45,24.81Z" style="fill: #fff"/>
  </g>
</svg>
