<svg id="图层_1" data-name="图层 1" xmlns="http://www.w3.org/2000/svg" viewBox="0 0 64 64">
  <g>
    <g>
      <path d="M31.56,60.31C16.31,60,3.47,47.8,3.7,30.82,3.84,16.37,17,3.42,31.93,3.7,48.4,4,60.27,15.5,60.31,32.16,60.4,48.07,48.1,60.27,31.56,60.31Zm.26-9c11.34,0,19.54-8.75,19.4-19.37-.14-11-7.74-18.8-19.26-19.19-11-.38-19.19,9.24-19.39,19C12.35,42.09,22.05,52,31.82,51.29Z" style="fill: #5153fe"/>
      <path d="M31.92,52.53c-10.39.78-20.72-9.79-20.48-20.77.22-10.43,8.92-20.66,20.63-20.26,12.23.42,20.34,8.72,20.49,20.42C52.72,43.21,44,52.48,31.92,52.53Z" style="fill: #fff"/>
    </g>
    <path d="M32,45.66c-6.91.52-13.78-6.51-13.62-13.81.15-6.93,5.93-13.74,13.72-13.47,8.13.28,13.52,5.8,13.62,13.57A13.43,13.43,0,0,1,32,45.66Z" style="fill: #ff73bd"/>
  </g>
</svg>
