<svg xmlns="http://www.w3.org/2000/svg" xmlns:xlink="http://www.w3.org/1999/xlink" width="16" height="16" viewBox="0 0 16 16" fill="none">
<path d="M6.00002 8.17809L6.00002 14.5001C6.00002 14.5107 6.00037 14.5213 6.00104 14.5319C6.00173 14.5424 6.00273 14.553 6.00407 14.5635C6.00541 14.574 6.0071 14.5845 6.0091 14.5949C6.01112 14.6053 6.01346 14.6157 6.01612 14.6259C6.0188 14.6362 6.02179 14.6464 6.0251 14.6564C6.02841 14.6665 6.03205 14.6765 6.03599 14.6863C6.03996 14.6961 6.04421 14.7058 6.04877 14.7154C6.05334 14.725 6.05821 14.7344 6.06337 14.7437C6.06854 14.7529 6.07399 14.762 6.07974 14.7709C6.08549 14.7798 6.09151 14.7886 6.0978 14.7971C6.10412 14.8056 6.11068 14.8139 6.11749 14.8221C6.12434 14.8302 6.13141 14.8381 6.13873 14.8457C6.14607 14.8534 6.15363 14.8608 6.16143 14.868C6.16924 14.8752 6.17726 14.8821 6.18551 14.8888C6.19376 14.8954 6.20219 14.9018 6.21083 14.908C6.21949 14.9141 6.22834 14.9199 6.23735 14.9255C6.24638 14.9311 6.25557 14.9364 6.26493 14.9414C6.27429 14.9463 6.28379 14.951 6.29344 14.9554C6.3031 14.9598 6.3129 14.9639 6.3228 14.9676C6.33273 14.9714 6.34276 14.9748 6.35288 14.9779C6.36302 14.981 6.37324 14.9838 6.38355 14.9863C6.39387 14.9888 6.40426 14.9909 6.41469 14.9927C6.42515 14.9945 6.43565 14.996 6.44618 14.9972C6.45673 14.9983 6.46729 14.9991 6.47788 14.9996C6.48848 15.0001 6.49908 15.0002 6.50968 15C6.52029 14.9998 6.53087 14.9992 6.54143 14.9984C6.55201 14.9975 6.56254 14.9963 6.57302 14.9947C6.58352 14.9932 6.59394 14.9913 6.6043 14.9891C6.61468 14.9869 6.62498 14.9843 6.63518 14.9815C6.6454 14.9786 6.65551 14.9754 6.66551 14.9719C6.67551 14.9684 6.6854 14.9646 6.69516 14.9604C6.70493 14.9563 6.71455 14.9518 6.72402 14.9471L9.72402 13.4471C9.72918 13.4445 9.73429 13.4418 9.73934 13.4391C9.7444 13.4363 9.74941 13.4335 9.75437 13.4305C9.75933 13.4276 9.76426 13.4246 9.7691 13.4215C9.77396 13.4184 9.77876 13.4152 9.78351 13.4119C9.78826 13.4087 9.79294 13.4053 9.79757 13.4019C9.80219 13.3985 9.80677 13.395 9.81127 13.3914C9.81579 13.3878 9.82024 13.3841 9.82462 13.3804C9.82901 13.3767 9.83332 13.3728 9.83757 13.3689C9.84182 13.365 9.84601 13.3611 9.85012 13.3571C9.85424 13.353 9.85827 13.3489 9.86224 13.3447C9.86621 13.3406 9.87012 13.3363 9.87394 13.332C9.87777 13.3277 9.88152 13.3233 9.88519 13.3189C9.88887 13.3144 9.89246 13.3099 9.89598 13.3054C9.89951 13.3008 9.90294 13.2962 9.90629 13.2915C9.90966 13.2868 9.91294 13.2821 9.91613 13.2773C9.91932 13.2725 9.92243 13.2677 9.92546 13.2628C9.92849 13.2579 9.93144 13.2529 9.93429 13.2479C9.93715 13.2429 9.93991 13.2378 9.94258 13.2327C9.94527 13.2276 9.94787 13.2225 9.95037 13.2173C9.95287 13.2121 9.95529 13.2069 9.9576 13.2016C9.95993 13.1963 9.96216 13.191 9.9643 13.1857C9.96644 13.1803 9.96849 13.1749 9.97043 13.1695C9.9724 13.1641 9.97426 13.1586 9.97601 13.1532C9.97779 13.1477 9.97946 13.1422 9.98102 13.1366C9.9826 13.1311 9.98407 13.1255 9.98544 13.1199C9.98683 13.1143 9.98812 13.1087 9.9893 13.1031C9.99049 13.0974 9.99158 13.0918 9.99257 13.0861C9.99357 13.0804 9.99446 13.0747 9.99524 13.069C9.99605 13.0633 9.99674 13.0576 9.99734 13.0519C9.99793 13.0461 9.99843 13.0404 9.99882 13.0346C9.99923 13.0289 9.99954 13.0231 9.99973 13.0174C9.99993 13.0116 10 13.0059 10 13.0001L10 8.17809L14.387 2.81709C14.3922 2.81076 14.3973 2.8043 14.4021 2.79771C14.407 2.79114 14.4117 2.78445 14.4163 2.77764C14.4208 2.77082 14.4252 2.7639 14.4294 2.75687C14.4336 2.74985 14.4377 2.74273 14.4415 2.7355C14.4454 2.72828 14.4491 2.72096 14.4526 2.71356C14.4561 2.70615 14.4594 2.69866 14.4625 2.69109C14.4656 2.68352 14.4686 2.67588 14.4714 2.66817C14.4741 2.66045 14.4767 2.65267 14.4791 2.64484C14.4814 2.637 14.4836 2.6291 14.4856 2.62115C14.4876 2.61321 14.4894 2.60523 14.491 2.59718C14.4926 2.58915 14.494 2.58109 14.4952 2.57298C14.4964 2.56488 14.4974 2.55675 14.4982 2.54859C14.499 2.54044 14.4996 2.53228 14.5 2.52409C14.5004 2.51591 14.5006 2.50773 14.5006 2.49953C14.5006 2.49134 14.5003 2.48316 14.4999 2.47498C14.4995 2.46679 14.4989 2.45863 14.4981 2.45048C14.4973 2.44232 14.4963 2.43419 14.4951 2.42609C14.4939 2.418 14.4925 2.40993 14.4909 2.40189C14.4893 2.39386 14.4875 2.38587 14.4855 2.37792C14.4835 2.36998 14.4813 2.36209 14.4789 2.35425C14.4765 2.34641 14.474 2.33864 14.4712 2.33093C14.4684 2.32321 14.4655 2.31557 14.4623 2.30801C14.4592 2.30045 14.4559 2.29296 14.4524 2.28556C14.4489 2.27816 14.4452 2.27085 14.4413 2.26362C14.4374 2.2564 14.4334 2.24928 14.4292 2.24226C14.425 2.23524 14.4206 2.22832 14.416 2.22151C14.4115 2.21471 14.4068 2.20802 14.4019 2.20143C14.397 2.19486 14.3919 2.18841 14.3867 2.18209C14.3815 2.17576 14.3762 2.16956 14.3707 2.1635C14.3652 2.15743 14.3595 2.15151 14.3537 2.14572C14.3479 2.13993 14.342 2.13429 14.3359 2.12879C14.3298 2.12329 14.3236 2.11795 14.3173 2.11276C14.311 2.10757 14.3045 2.10254 14.2979 2.09767C14.2913 2.09279 14.2846 2.08808 14.2778 2.08354C14.271 2.079 14.2641 2.07463 14.257 2.07042C14.25 2.06621 14.2429 2.06218 14.2356 2.05832C14.2284 2.05447 14.2211 2.0508 14.2137 2.04731C14.2063 2.04381 14.1988 2.0405 14.1912 2.03737C14.1837 2.03425 14.176 2.03131 14.1683 2.02856C14.1606 2.02581 14.1528 2.02325 14.145 2.02089C14.1371 2.01851 14.1292 2.01634 14.1213 2.01436C14.1133 2.01238 14.1053 2.01059 14.0973 2.009C14.0893 2.00741 14.0812 2.00602 14.0731 2.00482C14.065 2.00364 14.0569 2.00265 14.0487 2.00186C14.0406 2.00106 14.0324 2.00047 14.0242 2.00007C14.016 1.99969 14.0078 1.9995 13.9996 1.99951C13.9914 1.99952 13.9833 1.99973 13.9751 2.00014C13.9669 2.00055 13.9587 2.00117 13.9506 2.00198C13.9424 2.00279 13.9343 2.00381 13.9262 2.00503C13.9181 2.00624 13.91 2.00765 13.902 2.00926C13.894 2.01087 13.886 2.01267 13.878 2.01467C13.8701 2.01667 13.8622 2.01887 13.8544 2.02126C13.8465 2.02365 13.8388 2.02623 13.8311 2.029C13.8233 2.03177 13.8157 2.03473 13.8081 2.03787C13.8006 2.04102 13.7931 2.04435 13.7857 2.04787C13.7783 2.05138 13.771 2.05507 13.7638 2.05895C13.7566 2.06281 13.7495 2.06686 13.7424 2.07109C13.7354 2.07531 13.7285 2.0797 13.7217 2.08426C13.7149 2.08882 13.7082 2.09355 13.7016 2.09845C13.6951 2.10333 13.6886 2.10838 13.6823 2.11359C13.676 2.1188 13.6698 2.12416 13.6637 2.12967C13.6576 2.13518 13.6517 2.14084 13.6459 2.14664C13.6402 2.15244 13.6345 2.15838 13.629 2.16446C13.6236 2.17054 13.6182 2.17675 13.613 2.18309L9.11302 7.68309C9.10396 7.69417 9.0954 7.7056 9.08732 7.71742C9.07924 7.72923 9.07168 7.74137 9.06463 7.75384C9.0576 7.76629 9.05112 7.77903 9.04518 7.79204C9.03924 7.80506 9.03387 7.81831 9.02905 7.83179C9.02424 7.84528 9.02002 7.85893 9.0164 7.87278C9.01277 7.88662 9.00974 7.90059 9.0073 7.9147C9.00487 7.92881 9.00304 7.94298 9.00182 7.95723C9.00062 7.9715 9.00002 7.98578 9.00002 8.00009L9.00002 12.6911L7.00002 13.6911L7.00002 8.00009C7.00004 7.98578 6.99944 7.9715 6.99823 7.95723C6.99701 7.94296 6.99518 7.92879 6.99274 7.9147C6.99032 7.90059 6.98729 7.88662 6.98365 7.87278C6.98002 7.85893 6.9758 7.84528 6.97099 7.83179C6.96619 7.81831 6.96082 7.80506 6.95487 7.79204C6.94893 7.77903 6.94244 7.76629 6.9354 7.75382C6.92837 7.74137 6.92082 7.72923 6.91273 7.71742C6.90466 7.7056 6.89609 7.69417 6.88702 7.68309L3.05503 3.00009L11 3.00009C11.0082 3.00009 11.0164 2.99989 11.0246 2.99948C11.0327 2.99908 11.0409 2.99849 11.049 2.99768C11.0572 2.99688 11.0653 2.99588 11.0734 2.99468C11.0815 2.99348 11.0895 2.99207 11.0976 2.99048C11.1056 2.98889 11.1136 2.9871 11.1215 2.98511C11.1294 2.98312 11.1373 2.98093 11.1452 2.97856C11.153 2.97618 11.1608 2.97362 11.1685 2.97086C11.1762 2.96811 11.1838 2.96516 11.1914 2.96203C11.1989 2.9589 11.2064 2.95559 11.2138 2.95209C11.2212 2.94859 11.2285 2.94491 11.2357 2.94104C11.2429 2.93719 11.2501 2.93316 11.2571 2.92895C11.2641 2.92474 11.271 2.92037 11.2778 2.91582C11.2846 2.91128 11.2913 2.90657 11.2979 2.9017C11.3044 2.89682 11.3109 2.89179 11.3172 2.88659C11.3236 2.8814 11.3297 2.87606 11.3358 2.87056C11.3419 2.86507 11.3478 2.85943 11.3536 2.85364C11.3594 2.84786 11.365 2.84193 11.3705 2.83587C11.376 2.82981 11.3813 2.82362 11.3865 2.81729C11.3917 2.81096 11.3968 2.80451 11.4016 2.79793C11.4065 2.79136 11.4112 2.78467 11.4158 2.77787C11.4203 2.77107 11.4247 2.76416 11.4289 2.75714C11.4331 2.75012 11.4371 2.743 11.441 2.73579C11.4449 2.72857 11.4485 2.72127 11.452 2.71387C11.4555 2.70648 11.4588 2.699 11.462 2.69143C11.4651 2.68387 11.468 2.67624 11.4708 2.66853C11.4736 2.66083 11.4761 2.65306 11.4785 2.64523C11.4809 2.6374 11.4831 2.62951 11.485 2.62157C11.487 2.61364 11.4888 2.60566 11.4904 2.59764C11.492 2.58961 11.4934 2.58154 11.4946 2.57345C11.4958 2.56536 11.4968 2.55724 11.4976 2.54911C11.4984 2.54096 11.499 2.5328 11.4994 2.52462C11.4998 2.51646 11.5 2.50828 11.5 2.50009C11.5 2.4919 11.4998 2.48373 11.4994 2.47556C11.499 2.46738 11.4984 2.45922 11.4976 2.45107C11.4968 2.44294 11.4958 2.43482 11.4946 2.42673C11.4934 2.41864 11.492 2.41057 11.4904 2.40254C11.4888 2.39452 11.487 2.38654 11.485 2.37861C11.4831 2.37067 11.4809 2.36278 11.4785 2.35495C11.4761 2.34712 11.4736 2.33935 11.4708 2.33165C11.468 2.32394 11.4651 2.31631 11.462 2.30875C11.4588 2.30118 11.4555 2.29371 11.452 2.28631C11.4485 2.27891 11.4449 2.27161 11.441 2.26439C11.4371 2.25718 11.4331 2.25006 11.4289 2.24304C11.4247 2.23602 11.4203 2.22911 11.4158 2.22231C11.4112 2.21551 11.4065 2.20882 11.4016 2.20225C11.3968 2.19567 11.3917 2.18922 11.3865 2.18289C11.3813 2.17656 11.376 2.17037 11.3705 2.16431C11.365 2.15825 11.3594 2.15232 11.3536 2.14654C11.3478 2.14075 11.3419 2.13511 11.3358 2.12962C11.3297 2.12412 11.3236 2.11878 11.3172 2.11359C11.3109 2.10839 11.3044 2.10336 11.2979 2.09848C11.2913 2.09361 11.2846 2.0889 11.2778 2.08436C11.271 2.07981 11.2641 2.07544 11.2571 2.07123C11.2501 2.06702 11.2429 2.06299 11.2357 2.05914C11.2285 2.05527 11.2212 2.05159 11.2138 2.04809C11.2064 2.04459 11.1989 2.04128 11.1914 2.03815C11.1838 2.03502 11.1762 2.03207 11.1685 2.02932C11.1608 2.02656 11.153 2.024 11.1452 2.02162C11.1373 2.01925 11.1294 2.01706 11.1215 2.01507C11.1136 2.01308 11.1056 2.01129 11.0976 2.0097C11.0895 2.00811 11.0815 2.0067 11.0734 2.0055C11.0653 2.0043 11.0572 2.0033 11.049 2.0025C11.0409 2.00169 11.0327 2.0011 11.0246 2.0007C11.0164 2.00029 11.0082 2.00009 11 2.00009L2.00003 2.00009C1.99414 2.00009 1.98826 2.00019 1.98239 2.00039C1.97651 2.0006 1.97064 2.0009 1.96478 2.00131C1.9589 2.00173 1.95304 2.00224 1.9472 2.00286C1.94135 2.00347 1.93551 2.00419 1.92969 2.00501C1.92386 2.00583 1.91805 2.00676 1.91226 2.00779C1.90648 2.00882 1.90071 2.00995 1.89495 2.01118C1.8892 2.01241 1.88348 2.01375 1.87778 2.01518C1.87207 2.01662 1.86639 2.01815 1.86075 2.01978C1.8551 2.02141 1.84948 2.02315 1.84389 2.02498C1.8383 2.02681 1.83275 2.02875 1.82723 2.03078C1.82171 2.03281 1.81623 2.03493 1.81078 2.03715C1.80533 2.03937 1.79992 2.04169 1.79456 2.04411C1.78919 2.04652 1.78388 2.04903 1.77861 2.05162C1.77334 2.05423 1.76811 2.05692 1.76292 2.0597C1.75774 2.06249 1.75261 2.06537 1.74753 2.06832C1.74246 2.07129 1.73744 2.07435 1.73247 2.0775C1.72749 2.08064 1.72257 2.08387 1.71772 2.08718C1.71286 2.09051 1.70807 2.09391 1.70333 2.09739C1.6986 2.10088 1.69392 2.10444 1.68931 2.10809C1.68469 2.11175 1.68015 2.11548 1.67567 2.11929C1.67119 2.12311 1.66678 2.12699 1.66244 2.13095C1.6581 2.13492 1.65383 2.13897 1.64962 2.14309C1.64542 2.1472 1.6413 2.15139 1.63725 2.15565C1.6332 2.15991 1.62922 2.16425 1.62533 2.16865C1.62143 2.17306 1.61761 2.17753 1.61387 2.18207C1.61013 2.18661 1.60647 2.19121 1.60289 2.19587C1.59931 2.20054 1.59582 2.20527 1.5924 2.21006C1.589 2.21485 1.58567 2.2197 1.58243 2.22461C1.57918 2.22952 1.57603 2.23449 1.57297 2.2395C1.5699 2.24452 1.56693 2.24959 1.56404 2.25471C1.56116 2.25984 1.55836 2.26502 1.55566 2.27025C1.55295 2.27546 1.55034 2.28073 1.54783 2.28604C1.54531 2.29136 1.54288 2.29671 1.54056 2.30212C1.53823 2.30752 1.53599 2.31296 1.53386 2.31843C1.53172 2.32391 1.52968 2.32943 1.52774 2.33498C1.5258 2.34053 1.52395 2.34612 1.52221 2.35175C1.52046 2.35736 1.51882 2.363 1.51727 2.36867C1.51573 2.37435 1.51428 2.38005 1.51294 2.38578C1.51159 2.3915 1.51035 2.39724 1.50921 2.40301C1.50807 2.40878 1.50703 2.41457 1.50609 2.42039C1.50515 2.42619 1.50432 2.43201 1.50358 2.43784C1.50285 2.44367 1.50222 2.44952 1.5017 2.45539C1.50117 2.46124 1.50075 2.46711 1.50043 2.47298C1.50011 2.47886 1.4999 2.48473 1.49978 2.49061C1.49967 2.49649 1.49967 2.50237 1.49976 2.50825C1.49986 2.51413 1.50006 2.52001 1.50036 2.52589C1.50066 2.53175 1.50107 2.53762 1.50158 2.54348C1.50209 2.54934 1.50271 2.55518 1.50342 2.56103C1.50414 2.56686 1.50496 2.57268 1.50588 2.5785C1.5068 2.5843 1.50783 2.59009 1.50895 2.59587C1.51008 2.60164 1.51131 2.60739 1.51264 2.61312C1.51397 2.61885 1.5154 2.62455 1.51693 2.63023C1.51846 2.63591 1.52009 2.64156 1.52182 2.64718C1.52355 2.6528 1.52538 2.65839 1.52731 2.66395C1.52923 2.6695 1.53126 2.67502 1.53338 2.68051C1.5355 2.68599 1.53772 2.69143 1.54003 2.69684C1.54235 2.70225 1.54476 2.70761 1.54726 2.71293C1.54976 2.71826 1.55236 2.72353 1.55505 2.72876C1.55774 2.73399 1.56052 2.73917 1.56339 2.74431C1.56626 2.74944 1.56923 2.75452 1.57228 2.75954C1.57533 2.76457 1.57847 2.76955 1.5817 2.77446C1.58493 2.77938 1.58824 2.78424 1.59164 2.78904C1.59503 2.79384 1.59852 2.79857 1.60209 2.80325C1.60565 2.80792 1.6093 2.81254 1.61303 2.81709L6.00002 8.17809Z" fill="currentColor" >
</path>
</svg>
