<svg xmlns="http://www.w3.org/2000/svg" xmlns:xlink="http://www.w3.org/1999/xlink" width="20" height="19.5" viewBox="0 0 20 19.5" fill="none">
<path   fill-rule="evenodd"  fill="#FFFFFF"  d="M12 19.5C7 17.5001 0 14.4999 0 8C0 3.58169 3.5818 0 8 0L12 0C16.4182 0 20 3.58169 20 8C20 12.4181 16.4182 16 12 16L12 19.5ZM17.2 11C16.1282 12.8563 14.1435 14 12 14L10 14L10 16.48C4.46192 13.966 2 11.61 2 8C2 4.6864 4.68624 2 8 2L12 2C14.1435 2 16.1282 3.14366 17.2 5C18.2718 6.85648 18.2718 9.14352 17.2 11Z">
</path>
</svg>
