<svg xmlns="http://www.w3.org/2000/svg" xmlns:xlink="http://www.w3.org/1999/xlink" width="20" height="20" viewBox="0 0 20 20" fill="none">
<path d="M14.0309 11.8L10.7809 8.55005L9.36426 9.96672L12.6268 13.2284C12.6416 13.188 12.6575 13.148 12.6745 13.1085C12.6915 13.069 12.7095 13.0299 12.7286 12.9914C12.7476 12.9528 12.7676 12.9148 12.7888 12.8773C12.8098 12.8398 12.8318 12.8029 12.8548 12.7665C12.8779 12.7302 12.9019 12.6945 12.9268 12.6595C12.9517 12.6244 12.9775 12.59 13.0043 12.5563C13.031 12.5226 13.0586 12.4896 13.0871 12.4574C13.1156 12.4252 13.1449 12.3937 13.1751 12.363C13.2052 12.3324 13.2361 12.3025 13.2679 12.2735C13.2997 12.2445 13.3321 12.2163 13.3653 12.189C13.3986 12.1616 13.4326 12.1352 13.4672 12.1097C13.5018 12.0842 13.5371 12.0596 13.573 12.036C13.6089 12.0124 13.6455 11.9897 13.6827 11.968C13.7198 11.9463 13.7575 11.9256 13.7958 11.9059C13.834 11.8862 13.8727 11.8675 13.9119 11.8499C13.9511 11.8322 13.9908 11.8156 14.0309 11.8Z"   fill="#FFFFFF" >
</path>
<path d="M12.4999 13.7809L7.67578 15.2401L8.25411 17.1567L13.1099 15.6884C13.0851 15.6609 13.0608 15.6328 13.0372 15.6041C13.0136 15.5755 12.9907 15.5464 12.9684 15.5166C12.9462 15.487 12.9247 15.4568 12.9038 15.4261C12.8829 15.3954 12.8628 15.3642 12.8434 15.3326C12.8239 15.301 12.8052 15.269 12.7873 15.2365C12.7693 15.204 12.7521 15.1712 12.7357 15.1379C12.7193 15.1046 12.7037 15.071 12.6888 15.037C12.6739 15.003 12.6598 14.9687 12.6464 14.9341C12.6332 14.8994 12.6207 14.8644 12.6089 14.8292C12.5973 14.7941 12.5864 14.7586 12.5764 14.7229C12.5663 14.6872 12.5571 14.6512 12.5486 14.6151C12.5402 14.5789 12.5327 14.5426 12.5259 14.5061C12.5192 14.4696 12.5133 14.433 12.5083 14.3962C12.5032 14.3595 12.499 14.3227 12.4956 14.2857C12.4923 14.2487 12.4898 14.2117 12.4881 14.1746C12.4865 14.1376 12.4857 14.1005 12.4858 14.0634C12.4854 13.9689 12.4901 13.8748 12.4999 13.7809Z"   fill="#FFFFFF" >
</path>
<path d="M14.9166 11.6333C14.8797 11.6332 14.8429 11.6339 14.806 11.6355C14.7692 11.637 14.7324 11.6394 14.6957 11.6426C14.659 11.6459 14.6224 11.6499 14.5858 11.6548C14.5492 11.6598 14.5128 11.6655 14.4765 11.6721C14.4403 11.6786 14.4042 11.686 14.3682 11.6942C14.3323 11.7025 14.2965 11.7115 14.261 11.7213C14.2255 11.7311 14.1902 11.7418 14.1551 11.7532C14.1201 11.7647 14.0853 11.777 14.0509 11.79C14.0164 11.803 13.9822 11.8169 13.9484 11.8315C13.9145 11.8461 13.881 11.8615 13.8478 11.8776C13.8147 11.8937 13.7819 11.9106 13.7495 11.9282C13.7172 11.9458 13.6852 11.9642 13.6536 11.9832C13.6221 12.0023 13.591 12.0221 13.5603 12.0426C13.5297 12.0631 13.4995 12.0843 13.4699 12.1062C13.4402 12.1281 13.411 12.1506 13.3824 12.1738C13.3537 12.197 13.3256 12.2209 13.298 12.2454C13.2705 12.2699 13.2435 12.295 13.217 12.3207C13.1907 12.3465 13.1649 12.3728 13.1396 12.3996C13.1144 12.4265 13.0898 12.454 13.0659 12.482C13.0419 12.51 13.0186 12.5386 12.996 12.5676C12.9733 12.5968 12.9513 12.6264 12.93 12.6565C12.9087 12.6865 12.8881 12.7171 12.8681 12.7481C12.8482 12.7791 12.829 12.8106 12.8105 12.8426C12.792 12.8745 12.7743 12.9068 12.7573 12.9395C12.7403 12.9722 12.724 13.0053 12.7085 13.0387C12.693 13.0722 12.6783 13.106 12.6644 13.1401C12.6504 13.1742 12.6373 13.2087 12.6249 13.2434C12.6125 13.2781 12.6009 13.3131 12.5901 13.3484C12.5794 13.3836 12.5694 13.4191 12.5602 13.4548C12.551 13.4905 12.5427 13.5265 12.5352 13.5626C12.5277 13.5986 12.5209 13.6348 12.515 13.6712C12.5092 13.7077 12.5042 13.7442 12.5 13.7808C12.4896 13.8741 12.4844 13.9678 12.4841 14.0616C12.4841 14.1014 12.4851 14.1411 12.4871 14.1807C12.4891 14.2203 12.492 14.2599 12.4959 14.2995C12.4998 14.339 12.5046 14.3784 12.5105 14.4176C12.5163 14.4569 12.5231 14.496 12.5309 14.535C12.5387 14.5739 12.5474 14.6126 12.557 14.6511C12.5667 14.6896 12.5772 14.7279 12.5888 14.7659C12.6004 14.8039 12.6128 14.8416 12.6261 14.879C12.6395 14.9164 12.6538 14.9534 12.669 14.9901C12.6843 15.0268 12.7004 15.0631 12.7173 15.099C12.7343 15.1349 12.7522 15.1703 12.7709 15.2053C12.7896 15.2403 12.8092 15.2748 12.8295 15.3089C12.85 15.343 12.8712 15.3766 12.8933 15.4096C12.9154 15.4426 12.9382 15.475 12.9619 15.5069C12.9855 15.5388 13.01 15.5701 13.0351 15.6008C13.0603 15.6315 13.0862 15.6615 13.1129 15.691C13.1395 15.7204 13.1669 15.7491 13.195 15.7772C13.2231 15.8053 13.2519 15.8326 13.2813 15.8593C13.3107 15.886 13.3407 15.9119 13.3715 15.9371C13.4021 15.9623 13.4334 15.9867 13.4653 16.0104C13.4972 16.0341 13.5296 16.0569 13.5626 16.079C13.5957 16.101 13.6292 16.1223 13.6633 16.1427C13.6974 16.1631 13.7319 16.1827 13.7669 16.2014C13.8019 16.2202 13.8373 16.238 13.8732 16.255C13.9091 16.272 13.9454 16.2881 13.982 16.3033C14.0188 16.3185 14.0558 16.3328 14.0932 16.3461C14.1306 16.3595 14.1683 16.372 14.2062 16.3836C14.2442 16.3951 14.2825 16.4057 14.321 16.4154C14.3595 16.4251 14.3983 16.4338 14.4372 16.4415C14.4762 16.4493 14.5153 16.4561 14.5545 16.4619C14.5938 16.4677 14.6332 16.4726 14.6727 16.4766C14.7122 16.4804 14.7518 16.4834 14.7915 16.4853C14.8311 16.4873 14.8708 16.4883 14.9105 16.4883C14.9502 16.4883 14.9899 16.4874 15.0295 16.4855C15.0692 16.4835 15.1088 16.4806 15.1484 16.4767C15.1879 16.4728 15.2273 16.468 15.2665 16.4622C15.3058 16.4564 15.3449 16.4496 15.3839 16.4419C15.4228 16.4342 15.4616 16.4255 15.5001 16.4159C15.5386 16.4063 15.5769 16.3957 15.6149 16.3842C15.6529 16.3727 15.6906 16.3603 15.728 16.3469C15.7654 16.3336 15.8024 16.3193 15.8391 16.3041C15.8758 16.289 15.9121 16.2729 15.948 16.256C15.9839 16.239 16.0194 16.2212 16.0545 16.2025C16.0895 16.1838 16.124 16.1643 16.158 16.1439C16.1922 16.1235 16.2257 16.1023 16.2587 16.0802C16.2918 16.0582 16.3242 16.0353 16.3561 16.0117C16.3881 15.9881 16.4194 15.9637 16.4501 15.9386C16.4809 15.9134 16.5109 15.8875 16.5404 15.8608C16.5698 15.8342 16.5986 15.8069 16.6266 15.7788C16.6547 15.7508 16.6822 15.722 16.7089 15.6926C16.7355 15.6632 16.7615 15.6331 16.7867 15.6025C16.8119 15.5718 16.8364 15.5405 16.86 15.5086C16.8838 15.4768 16.9067 15.4444 16.9287 15.4114C16.9508 15.3784 16.9721 15.3449 16.9925 15.3108C17.013 15.2768 17.0326 15.2423 17.0513 15.2073C17.0701 15.1723 17.088 15.1369 17.105 15.101C17.122 15.0651 17.1382 15.0288 17.1534 14.9921C17.1686 14.9555 17.1829 14.9185 17.1964 14.8811C17.2098 14.8437 17.2222 14.8061 17.2338 14.7681C17.2454 14.7301 17.256 14.6918 17.2657 14.6533C17.2754 14.6148 17.2841 14.5761 17.292 14.5371C17.2997 14.4982 17.3066 14.4591 17.3125 14.4198C17.3183 14.3805 17.3232 14.3411 17.3271 14.3016C17.3311 14.2621 17.334 14.2226 17.336 14.1829C17.338 14.1432 17.3391 14.1036 17.3391 14.0639C17.3392 14.0242 17.3383 13.9845 17.3364 13.9448C17.3345 13.9051 17.3316 13.8656 17.3277 13.8261C17.3239 13.7865 17.3191 13.7471 17.3133 13.7078C17.3075 13.6685 17.3008 13.6294 17.2931 13.5905C17.2854 13.5515 17.2768 13.5128 17.2672 13.4742C17.2576 13.4357 17.2471 13.3974 17.2356 13.3594C17.2241 13.3214 17.2117 13.2837 17.1984 13.2463C17.185 13.2089 17.1708 13.1718 17.1557 13.1351C17.1405 13.0984 17.1245 13.0621 17.1076 13.0261C17.0907 12.9903 17.0729 12.9548 17.0542 12.9197C17.0355 12.8847 17.016 12.8501 16.9957 12.816C16.9753 12.7819 16.9541 12.7484 16.9321 12.7153C16.9101 12.6823 16.8873 12.6498 16.8637 12.6178C16.8401 12.5859 16.8157 12.5546 16.7906 12.5238C16.7655 12.4931 16.7396 12.463 16.713 12.4336C16.6864 12.4041 16.659 12.3753 16.631 12.3471C16.603 12.319 16.5743 12.2916 16.5449 12.2649C16.5155 12.2382 16.4855 12.2122 16.4548 12.187C16.4242 12.1617 16.3929 12.1372 16.361 12.1136C16.3292 12.0898 16.2968 12.0669 16.2638 12.0448C16.2309 12.0227 16.1974 12.0014 16.1633 11.9809C16.1293 11.9605 16.0948 11.9408 16.0598 11.922C16.0249 11.9032 15.9894 11.8853 15.9535 11.8683C15.9177 11.8513 15.8814 11.8351 15.8448 11.8198C15.8081 11.8045 15.7711 11.7902 15.7337 11.7767C15.6964 11.7633 15.6587 11.7508 15.6207 11.7391C15.5828 11.7276 15.5445 11.717 15.506 11.7072C15.4675 11.6975 15.4288 11.6887 15.3899 11.6809C15.3509 11.6731 15.3118 11.6662 15.2725 11.6603C15.2333 11.6544 15.194 11.6495 15.1545 11.6455C15.1149 11.6415 15.0753 11.6385 15.0357 11.6365C14.996 11.6344 14.9564 11.6334 14.9166 11.6333ZM14.9166 13.1766C14.9311 13.1766 14.9456 13.177 14.96 13.1776C14.9745 13.1784 14.989 13.1794 15.0034 13.1808C15.0178 13.1822 15.0322 13.184 15.0465 13.1861C15.0609 13.1883 15.0751 13.1907 15.0893 13.1935C15.1035 13.1963 15.1177 13.1995 15.1317 13.203C15.1458 13.2065 15.1597 13.2103 15.1736 13.2146C15.1875 13.2187 15.2012 13.2233 15.2149 13.2281C15.2285 13.233 15.2421 13.2382 15.2555 13.2437C15.2689 13.2492 15.2821 13.2551 15.2951 13.2613C15.3082 13.2675 15.3212 13.274 15.334 13.2808C15.3467 13.2876 15.3594 13.2948 15.3718 13.3021C15.3842 13.3096 15.3965 13.3173 15.4085 13.3254C15.4206 13.3335 15.4324 13.3418 15.444 13.3504C15.4557 13.359 15.4672 13.3679 15.4784 13.3771C15.4895 13.3862 15.5005 13.3957 15.5113 13.4054C15.522 13.4151 15.5325 13.4251 15.5428 13.4354C15.553 13.4456 15.563 13.4561 15.5727 13.4668C15.5825 13.4775 15.592 13.4885 15.6011 13.4996C15.6104 13.5109 15.6193 13.5223 15.6279 13.5339C15.6365 13.5456 15.6449 13.5574 15.653 13.5694C15.661 13.5815 15.6688 13.5937 15.6762 13.6061C15.6837 13.6185 15.6908 13.6311 15.6976 13.6439C15.7045 13.6567 15.711 13.6696 15.7172 13.6826C15.7234 13.6958 15.7293 13.709 15.7349 13.7224C15.7404 13.7358 15.7457 13.7493 15.7505 13.7629C15.7554 13.7766 15.76 13.7903 15.7642 13.8041C15.7684 13.818 15.7722 13.832 15.7758 13.8461C15.7794 13.8601 15.7825 13.8742 15.7854 13.8884C15.7882 13.9026 15.7907 13.9169 15.7928 13.9312C15.7949 13.9456 15.7967 13.9599 15.7981 13.9743C15.7996 13.9888 15.8007 14.0032 15.8014 14.0176C15.8021 14.0321 15.8025 14.0466 15.8025 14.0611C15.8025 14.0756 15.8021 14.0901 15.8015 14.1046C15.8007 14.119 15.7997 14.1335 15.7982 14.1479C15.7968 14.1623 15.7951 14.1766 15.793 14.191C15.7909 14.2053 15.7884 14.2196 15.7855 14.2338C15.7827 14.248 15.7795 14.2621 15.776 14.2761C15.7725 14.2902 15.7687 14.3042 15.7645 14.3181C15.7603 14.332 15.7558 14.3457 15.7509 14.3593C15.746 14.373 15.7408 14.3865 15.7353 14.3999C15.7297 14.4133 15.7239 14.4265 15.7177 14.4396C15.7115 14.4527 15.705 14.4656 15.6982 14.4784C15.6914 14.4912 15.6842 14.5038 15.6768 14.5162C15.6694 14.5287 15.6616 14.5409 15.6535 14.553C15.6455 14.565 15.6372 14.5769 15.6285 14.5885C15.6199 14.6001 15.611 14.6116 15.6019 14.6227C15.5927 14.634 15.5832 14.6449 15.5735 14.6556C15.5637 14.6664 15.5538 14.6769 15.5435 14.6871C15.5333 14.6974 15.5229 14.7074 15.5121 14.7171C15.5014 14.7269 15.4904 14.7363 15.4792 14.7455C15.468 14.7547 15.4566 14.7636 15.445 14.7722C15.4334 14.7809 15.4215 14.7893 15.4095 14.7973C15.3974 14.8054 15.3852 14.8131 15.3728 14.8206C15.3604 14.828 15.3477 14.8351 15.335 14.842C15.3222 14.8488 15.3093 14.8553 15.2962 14.8616C15.2831 14.8677 15.2699 14.8736 15.2565 14.8791C15.2431 14.8847 15.2296 14.8899 15.216 14.8948C15.2023 14.8997 15.1885 14.9043 15.1747 14.9085C15.1608 14.9126 15.1469 14.9165 15.1328 14.9201C15.1187 14.9236 15.1046 14.9267 15.0905 14.9296C15.0762 14.9324 15.062 14.9349 15.0476 14.9371C15.0333 14.9392 15.0189 14.941 15.0045 14.9424C14.9901 14.9438 14.9757 14.9448 14.9612 14.9456C14.9467 14.9463 14.9322 14.9466 14.9177 14.9466C14.9033 14.9466 14.8888 14.9463 14.8743 14.9456C14.8599 14.9449 14.8454 14.9438 14.831 14.9424C14.8166 14.941 14.8022 14.9392 14.7879 14.9371C14.7735 14.935 14.7593 14.9325 14.745 14.9296C14.7308 14.9269 14.7167 14.9237 14.7026 14.9201C14.6886 14.9166 14.6746 14.9128 14.6608 14.9086C14.6469 14.9044 14.6332 14.8999 14.6195 14.895C14.6059 14.8901 14.5924 14.8849 14.579 14.8794C14.5656 14.8738 14.5524 14.868 14.5393 14.8617C14.5262 14.8556 14.5132 14.8491 14.5005 14.8422C14.4877 14.8354 14.4751 14.8283 14.4626 14.8208C14.4502 14.8134 14.438 14.8056 14.426 14.7976C14.4139 14.7896 14.402 14.7812 14.3904 14.7726C14.3788 14.764 14.3674 14.7551 14.3561 14.7459C14.345 14.7367 14.334 14.7272 14.3232 14.7175C14.3125 14.7078 14.302 14.6978 14.2918 14.6876C14.2815 14.6773 14.2715 14.6668 14.2618 14.6561C14.2521 14.6453 14.2426 14.6344 14.2335 14.6231C14.2242 14.612 14.2153 14.6006 14.2067 14.5889C14.198 14.5773 14.1897 14.5655 14.1816 14.5534C14.1736 14.5413 14.1659 14.5291 14.1585 14.5167C14.151 14.5043 14.1438 14.4917 14.137 14.4789C14.1302 14.4661 14.1237 14.4532 14.1175 14.4401C14.1113 14.427 14.1054 14.4138 14.0999 14.4004C14.0943 14.387 14.0891 14.3735 14.0842 14.3598C14.0793 14.3462 14.0748 14.3325 14.0705 14.3186C14.0664 14.3047 14.0625 14.2908 14.059 14.2767C14.0555 14.2627 14.0523 14.2485 14.0495 14.2343C14.0466 14.2201 14.0442 14.2059 14.042 14.1916C14.0399 14.1772 14.0382 14.1628 14.0367 14.1484C14.0353 14.134 14.0343 14.1196 14.0335 14.1051C14.0328 14.0906 14.0325 14.0761 14.0325 14.0616C14.0325 14.0471 14.0328 14.0327 14.0335 14.0182C14.0343 14.0038 14.0353 13.9894 14.0367 13.975C14.0382 13.9605 14.0399 13.9462 14.042 13.9319C14.0442 13.9176 14.0466 13.9033 14.0495 13.8891C14.0523 13.8749 14.0555 13.8608 14.059 13.8467C14.0625 13.8327 14.0663 13.8187 14.0705 13.8049C14.0747 13.7911 14.0792 13.7773 14.0841 13.7636C14.089 13.75 14.0942 13.7365 14.0997 13.7231C14.1053 13.7098 14.1111 13.6965 14.1173 13.6835C14.1235 13.6704 14.13 13.6575 14.1369 13.6447C14.1437 13.632 14.1508 13.6193 14.1582 13.6069C14.1657 13.5945 14.1734 13.5823 14.1815 13.5702C14.1895 13.5582 14.1978 13.5463 14.2064 13.5347C14.215 13.5231 14.224 13.5117 14.2331 13.5005C14.2423 13.4893 14.2517 13.4783 14.2615 13.4676C14.2712 13.4568 14.2812 13.4464 14.2914 13.4361C14.3016 13.4259 14.3121 13.416 14.3228 13.4062C14.3335 13.3965 14.3445 13.387 14.3556 13.3778C14.3669 13.3686 14.3783 13.3597 14.3899 13.3511C14.4015 13.3425 14.4133 13.3341 14.4254 13.3261C14.4374 13.318 14.4496 13.3103 14.462 13.3028C14.4744 13.2954 14.487 13.2882 14.4998 13.2814C14.5125 13.2746 14.5254 13.2681 14.5385 13.2619C14.5516 13.2557 14.5648 13.2498 14.5782 13.2442C14.5916 13.2387 14.6051 13.2335 14.6187 13.2286C14.6323 13.2237 14.646 13.2191 14.6599 13.215C14.6738 13.2108 14.6877 13.2069 14.7017 13.2033C14.7158 13.1998 14.7299 13.1966 14.7441 13.1938C14.7583 13.191 14.7725 13.1885 14.7869 13.1863C14.8012 13.1842 14.8155 13.1824 14.83 13.181C14.8444 13.1795 14.8588 13.1785 14.8732 13.1777C14.8877 13.177 14.9021 13.1766 14.9166 13.1766Z"   fill="#FFFFFF" >
</path>
<ellipse cx="7.811285014525359" cy="19.304819084128116" transform="rotate(-84.35000011910729 6.172119140625 17.6656494140625)" rx="1.6391658739003596" ry="1.6391696700656169"   fill="#FFFFFF" >
</ellipse>
<path d="M7.96493 11.9091C8.04285 11.9091 8.12072 11.9072 8.19853 11.9034C8.27636 11.8995 8.35404 11.8938 8.4316 11.8862C8.5091 11.8785 8.58641 11.869 8.66352 11.8576C8.74058 11.8462 8.81733 11.8329 8.89377 11.8176C8.97016 11.8025 9.04613 11.7854 9.12169 11.7665C9.19729 11.7475 9.27238 11.7267 9.34694 11.7041C9.42149 11.6815 9.49546 11.657 9.56885 11.6308C9.64219 11.6045 9.71485 11.5765 9.78685 11.5467C9.85879 11.517 9.92999 11.4854 10.0004 11.452C10.0709 11.4187 10.1405 11.3837 10.2092 11.347C10.2779 11.3102 10.3457 11.2719 10.4125 11.2318C10.4794 11.1917 10.5452 11.15 10.6099 11.1068C10.6747 11.0635 10.7384 11.0186 10.8009 10.9722C10.8635 10.9258 10.925 10.8779 10.9852 10.8285C11.0454 10.779 11.1044 10.7281 11.1621 10.6759C11.2198 10.6235 11.2762 10.5698 11.3314 10.5147C11.3865 10.4596 11.4402 10.4032 11.4925 10.3455C11.5448 10.2877 11.5957 10.2288 11.6451 10.1685C11.6945 10.1083 11.7424 10.0469 11.7889 9.98429C11.8353 9.92173 11.8802 9.85806 11.9234 9.79329C11.9667 9.72851 12.0084 9.6627 12.0484 9.59587C12.0885 9.52903 12.1269 9.46126 12.1636 9.39253C12.2004 9.32381 12.2354 9.25423 12.2687 9.18378C12.302 9.11334 12.3336 9.04214 12.3634 8.9702C12.3932 8.8982 12.4212 8.82553 12.4474 8.7522C12.4737 8.67881 12.4982 8.60484 12.5208 8.53028C12.5434 8.45573 12.5642 8.38066 12.5831 8.30508C12.602 8.22949 12.6191 8.15349 12.6343 8.07708C12.6495 8.00066 12.6629 7.92392 12.6743 7.84684C12.6857 7.76977 12.6952 7.69247 12.7029 7.61493C12.7104 7.53738 12.7162 7.45971 12.72 7.38188C12.7239 7.30407 12.7258 7.2262 12.7258 7.14828C12.7258 7.07037 12.7239 6.9925 12.72 6.91468C12.7162 6.83686 12.7104 6.75918 12.7029 6.68164C12.6952 6.6041 12.6857 6.5268 12.6743 6.44973C12.6629 6.37265 12.6495 6.29591 12.6343 6.21949C12.6191 6.14308 12.602 6.06708 12.5831 5.99149C12.5642 5.91592 12.5434 5.84084 12.5208 5.76628C12.4982 5.69173 12.4737 5.61777 12.4474 5.54441C12.4212 5.47105 12.3932 5.39838 12.3634 5.32639C12.3336 5.25441 12.302 5.1832 12.2687 5.11277C12.2354 5.04233 12.2004 4.97276 12.1636 4.90404C12.1269 4.83533 12.0885 4.76755 12.0484 4.70073C12.0084 4.6339 11.9667 4.56809 11.9234 4.50331C11.8802 4.43853 11.8353 4.37484 11.7889 4.31226C11.7424 4.24968 11.6945 4.18827 11.6451 4.12804C11.5957 4.06782 11.5448 4.00883 11.4925 3.9511C11.4402 3.89338 11.3865 3.83696 11.3314 3.78187C11.2762 3.72678 11.2198 3.67307 11.1621 3.62074C11.1044 3.56842 11.0454 3.51753 10.9852 3.46811C10.925 3.41868 10.8635 3.37076 10.8009 3.32434C10.7384 3.27793 10.6747 3.23308 10.6099 3.18979C10.5452 3.14651 10.4794 3.10484 10.4125 3.06478C10.3457 3.02472 10.2779 2.98633 10.2092 2.9496C10.1405 2.91287 10.0709 2.87785 10.0004 2.84454C9.92999 2.81123 9.85879 2.77967 9.78685 2.74985C9.71485 2.72003 9.64219 2.692 9.56885 2.66575C9.49546 2.6395 9.42149 2.61507 9.34694 2.59245C9.27238 2.56983 9.19729 2.54906 9.12169 2.53013C9.04613 2.51119 8.97016 2.49413 8.89377 2.47893C8.81733 2.46373 8.74058 2.45041 8.66352 2.43898C8.58641 2.42755 8.5091 2.41802 8.4316 2.41038C8.35404 2.40274 8.27636 2.39701 8.19853 2.39318C8.12072 2.38936 8.04285 2.38745 7.96493 2.38745C7.88702 2.38745 7.80915 2.38936 7.73133 2.39318C7.65351 2.39701 7.57583 2.40274 7.49829 2.41038C7.42075 2.41802 7.34345 2.42755 7.26638 2.43898C7.1893 2.45041 7.11256 2.46373 7.03614 2.47893C6.95973 2.49413 6.88373 2.51119 6.80814 2.53013C6.73257 2.54906 6.65749 2.56983 6.58293 2.59245C6.50838 2.61507 6.43442 2.6395 6.36106 2.66575C6.2877 2.692 6.21503 2.72003 6.14304 2.74985C6.07106 2.77967 5.99985 2.81123 5.92942 2.84454C5.85898 2.87785 5.78941 2.91287 5.72069 2.9496C5.65198 2.98633 5.5842 3.02472 5.51738 3.06478C5.45055 3.10484 5.38474 3.14651 5.31996 3.18979C5.25518 3.23308 5.19149 3.27793 5.12891 3.32434C5.06633 3.37076 5.00492 3.41868 4.94469 3.46811C4.88447 3.51753 4.82548 3.56842 4.76775 3.62074C4.71003 3.67307 4.65361 3.72678 4.59852 3.78187C4.54343 3.83696 4.48972 3.89338 4.43739 3.9511C4.38507 4.00883 4.33418 4.06782 4.28476 4.12804C4.23533 4.18827 4.18741 4.24968 4.14099 4.31226C4.09458 4.37484 4.04974 4.43853 4.00644 4.50331C3.96316 4.56809 3.92149 4.6339 3.88143 4.70073C3.84137 4.76755 3.80298 4.83533 3.76625 4.90404C3.72952 4.97276 3.6945 5.04233 3.66119 5.11277C3.62788 5.1832 3.59632 5.25441 3.5665 5.32639C3.53668 5.39838 3.50865 5.47105 3.4824 5.54441C3.45615 5.61777 3.43172 5.69173 3.4091 5.76628C3.38648 5.84084 3.36571 5.91592 3.34678 5.99149C3.32784 6.06708 3.31078 6.14308 3.29558 6.21949C3.28038 6.29591 3.26706 6.37265 3.25563 6.44973C3.2442 6.5268 3.23467 6.6041 3.22703 6.68164C3.21939 6.75918 3.21366 6.83686 3.20983 6.91468C3.20601 6.9925 3.2041 7.07037 3.2041 7.14828C3.2041 7.2262 3.20601 7.30407 3.20983 7.38188C3.21366 7.45971 3.21939 7.53738 3.22703 7.61493C3.23467 7.69247 3.2442 7.76977 3.25563 7.84684C3.26706 7.92392 3.28038 8.00066 3.29558 8.07708C3.31078 8.15349 3.32784 8.22949 3.34678 8.30508C3.36571 8.38066 3.38648 8.45573 3.4091 8.53028C3.43172 8.60484 3.45615 8.67881 3.4824 8.7522C3.50865 8.82553 3.53668 8.8982 3.5665 8.9702C3.59632 9.04214 3.62788 9.11334 3.66119 9.18378C3.6945 9.25423 3.72952 9.32381 3.76625 9.39253C3.80298 9.46126 3.84138 9.52903 3.88143 9.59587C3.92149 9.6627 3.96316 9.72851 4.00644 9.79329C4.04974 9.85806 4.09458 9.92173 4.141 9.98429C4.18741 10.0469 4.23533 10.1083 4.28476 10.1685C4.33418 10.2288 4.38507 10.2877 4.43739 10.3455C4.48972 10.4032 4.54343 10.4596 4.59852 10.5147C4.65361 10.5698 4.71003 10.6235 4.76775 10.6759C4.82548 10.7281 4.88447 10.779 4.94469 10.8285C5.00492 10.8779 5.06633 10.9258 5.12891 10.9722C5.19149 11.0186 5.25518 11.0635 5.31996 11.1068C5.38474 11.15 5.45055 11.1917 5.51738 11.2318C5.5842 11.2719 5.65198 11.3102 5.72069 11.347C5.78941 11.3837 5.85898 11.4187 5.92942 11.452C5.99985 11.4854 6.07106 11.517 6.14304 11.5467C6.21503 11.5765 6.2877 11.6045 6.36106 11.6308C6.43442 11.657 6.50838 11.6815 6.58293 11.7041C6.65749 11.7267 6.73257 11.7475 6.80814 11.7665C6.88373 11.7854 6.95973 11.8025 7.03614 11.8176C7.11256 11.8329 7.1893 11.8462 7.26638 11.8576C7.34345 11.869 7.42075 11.8785 7.49829 11.8862C7.57583 11.8938 7.65351 11.8995 7.73133 11.9034C7.80915 11.9072 7.88702 11.9091 7.96493 11.9091ZM7.96493 5.41412C7.99332 5.41412 8.02168 5.41482 8.05003 5.41621C8.07837 5.4176 8.10667 5.41968 8.13491 5.42247C8.16315 5.42525 8.19132 5.42873 8.21939 5.43288C8.24747 5.43705 8.27542 5.4419 8.30325 5.44744C8.33109 5.45298 8.35877 5.45919 8.38627 5.46609C8.41383 5.47298 8.44118 5.48055 8.46835 5.48879C8.49552 5.49703 8.52246 5.50593 8.54918 5.51549C8.57591 5.52505 8.60238 5.53527 8.6286 5.54613C8.65483 5.55698 8.68074 5.56848 8.70635 5.58062C8.73202 5.59275 8.75738 5.60551 8.78243 5.61888C8.80744 5.63226 8.8321 5.64625 8.85643 5.66084C8.88083 5.67543 8.90479 5.69061 8.92835 5.70638C8.95196 5.72214 8.97519 5.73848 8.99802 5.75538C9.02079 5.77229 9.04316 5.78975 9.0651 5.80775C9.08704 5.82576 9.10852 5.84429 9.12952 5.86335C9.15058 5.88241 9.17113 5.90198 9.19118 5.92204C9.21124 5.94211 9.23079 5.96266 9.24985 5.98369C9.26891 6.00472 9.28744 6.0262 9.30544 6.04814C9.32343 6.07008 9.34091 6.09245 9.35785 6.11524C9.37474 6.13803 9.39108 6.16123 9.40685 6.18483C9.42263 6.20843 9.43779 6.2324 9.45235 6.25674C9.46696 6.28108 9.48096 6.30578 9.49435 6.3308C9.50774 6.35583 9.52049 6.38118 9.5326 6.40683C9.54471 6.43249 9.55621 6.45843 9.5671 6.48464C9.57793 6.51087 9.58816 6.53733 9.59777 6.56406C9.60733 6.59078 9.61621 6.61773 9.62444 6.64488C9.63266 6.67204 9.64021 6.69938 9.6471 6.72692C9.65399 6.75444 9.66021 6.78213 9.66577 6.80997C9.67133 6.8378 9.67619 6.86575 9.68035 6.89383C9.68452 6.9219 9.68799 6.95007 9.69077 6.97831C9.69354 7.00655 9.69563 7.03485 9.69702 7.06319C9.69841 7.09153 9.6991 7.1199 9.6991 7.14828C9.6991 7.17666 9.69841 7.20503 9.69702 7.23338C9.69563 7.26172 9.69354 7.29002 9.69077 7.31826C9.68799 7.3465 9.68452 7.37466 9.68035 7.40273C9.67619 7.43081 9.67133 7.45877 9.66577 7.4866C9.66021 7.51444 9.65399 7.54213 9.6471 7.56965C9.64021 7.59718 9.63266 7.62453 9.62444 7.65168C9.61621 7.67884 9.60733 7.70578 9.59777 7.73251C9.58816 7.75923 9.57793 7.7857 9.5671 7.81192C9.55621 7.83814 9.54471 7.86408 9.5326 7.88973C9.52049 7.91539 9.50774 7.94073 9.49435 7.96576C9.48096 7.99079 9.46696 8.01548 9.45235 8.03983C9.43779 8.06417 9.42263 8.08813 9.40685 8.11173C9.39108 8.13533 9.37474 8.15854 9.35785 8.18133C9.34091 8.20412 9.32343 8.22648 9.30544 8.24843C9.28744 8.27037 9.26891 8.29185 9.24985 8.31288C9.23079 8.33393 9.21124 8.35448 9.19118 8.37453C9.17113 8.39459 9.15058 8.41414 9.12952 8.4332C9.10852 8.45226 9.08704 8.47079 9.0651 8.48878C9.04316 8.50678 9.02077 8.52426 8.99793 8.5412C8.97516 8.55809 8.95196 8.57443 8.92835 8.5902C8.90479 8.60598 8.88083 8.62114 8.85643 8.6357C8.8321 8.65031 8.80744 8.66431 8.78243 8.6777C8.75738 8.69109 8.73202 8.70384 8.70635 8.71595C8.68074 8.72806 8.65483 8.73956 8.6286 8.75045C8.60238 8.76128 8.57591 8.77151 8.54918 8.78112C8.52246 8.79068 8.49552 8.79956 8.46835 8.80779C8.44118 8.81601 8.41383 8.82356 8.38627 8.83045C8.35877 8.83734 8.33109 8.84356 8.30325 8.84912C8.27542 8.85468 8.24747 8.85954 8.21939 8.8637C8.19132 8.86787 8.16315 8.87134 8.13491 8.87412C8.10667 8.87689 8.07837 8.87898 8.05003 8.88037C8.02168 8.88176 7.99332 8.88245 7.96493 8.88245C7.93655 8.88245 7.90819 8.88176 7.87984 8.88037C7.8515 8.87898 7.8232 8.87689 7.79496 8.87412C7.76672 8.87134 7.73855 8.86787 7.71048 8.8637C7.6824 8.85954 7.65445 8.85468 7.62662 8.84912C7.59878 8.84356 7.57109 8.83734 7.54357 8.83045C7.51603 8.82356 7.48869 8.81601 7.46153 8.80779C7.43438 8.79956 7.40743 8.79068 7.38071 8.78112C7.35398 8.77151 7.32752 8.76128 7.30129 8.75045C7.27508 8.73956 7.24914 8.72806 7.22348 8.71595C7.19783 8.70384 7.17248 8.69109 7.14745 8.6777C7.12243 8.66431 7.09773 8.65031 7.07339 8.6357C7.04905 8.62114 7.02508 8.60598 7.00148 8.5902C6.97789 8.57443 6.95469 8.55809 6.93189 8.5412C6.9091 8.52426 6.88673 8.50678 6.86479 8.48878C6.84285 8.47079 6.82137 8.45226 6.80034 8.4332C6.77931 8.41414 6.75876 8.39459 6.73869 8.37453C6.71863 8.35448 6.69906 8.33393 6.68 8.31288C6.66094 8.29185 6.64241 8.27037 6.6244 8.24843C6.6064 8.22648 6.58894 8.20412 6.57203 8.18133C6.55513 8.15854 6.53879 8.13533 6.52303 8.11173C6.50726 8.08813 6.49208 8.06417 6.47749 8.03983C6.4629 8.01548 6.44891 7.99079 6.43553 7.96577C6.42216 7.94073 6.4094 7.91539 6.39727 7.88973C6.38513 7.86408 6.37363 7.83814 6.36277 7.81192C6.35191 7.7857 6.3417 7.75923 6.33214 7.73251C6.32259 7.70578 6.31368 7.67884 6.30544 7.65168C6.2972 7.62453 6.28963 7.59718 6.28273 7.56965C6.27584 7.54213 6.26963 7.51444 6.26408 7.4866C6.25855 7.45877 6.2537 7.43082 6.24953 7.40274C6.24538 7.37467 6.2419 7.3465 6.23912 7.31826C6.23633 7.29002 6.23425 7.26172 6.23286 7.23338C6.23147 7.20503 6.23077 7.17667 6.23077 7.14828C6.23081 7.11993 6.23154 7.09159 6.23298 7.06328C6.23441 7.03496 6.23654 7.00669 6.23935 6.97848C6.24217 6.95026 6.24568 6.92213 6.24987 6.89409C6.25407 6.86605 6.25895 6.83813 6.26452 6.81032C6.27008 6.78252 6.27633 6.75487 6.28325 6.72737C6.29018 6.69988 6.29777 6.67257 6.30603 6.64544C6.31429 6.61832 6.32322 6.59141 6.3328 6.56473C6.34238 6.53803 6.35261 6.5116 6.36349 6.48542C6.37437 6.45923 6.38589 6.43333 6.39804 6.40771C6.41018 6.38208 6.42295 6.35678 6.43634 6.33179C6.44973 6.3068 6.46373 6.28214 6.47833 6.25783C6.49294 6.23353 6.50812 6.20959 6.52389 6.18603C6.53967 6.16248 6.55602 6.13931 6.57293 6.11655C6.58984 6.09379 6.60729 6.07146 6.62529 6.04955C6.6433 6.02765 6.66183 6.0062 6.68089 5.98521C6.69995 5.96422 6.71951 5.9437 6.73958 5.92366C6.75964 5.90363 6.78018 5.88409 6.80121 5.86507C6.82224 5.84604 6.84371 5.82753 6.86563 5.80956C6.88757 5.79158 6.90993 5.77416 6.93271 5.75728C6.95549 5.74041 6.97868 5.7241 7.00226 5.70836C7.02585 5.69262 7.04981 5.67747 7.07413 5.6629C7.09846 5.64833 7.12314 5.63438 7.14814 5.62102C7.17315 5.60766 7.19848 5.59493 7.22412 5.58282C7.24976 5.57071 7.27568 5.55923 7.30188 5.54838C7.32808 5.53754 7.35453 5.52735 7.38123 5.51781C7.40793 5.50827 7.43484 5.49938 7.46198 5.49116C7.48912 5.48293 7.51643 5.47538 7.54394 5.46849C7.57145 5.46161 7.59911 5.4554 7.62692 5.44988C7.65473 5.44435 7.68266 5.43951 7.71071 5.43535C7.73876 5.43119 7.76689 5.42773 7.79511 5.42495C7.82333 5.42218 7.8516 5.42009 7.87992 5.4187C7.90824 5.41731 7.93658 5.41662 7.96493 5.41662L7.96493 5.41412Z"   fill="#FFFFFF" >
</path>
</svg>
