<svg xmlns="http://www.w3.org/2000/svg" xmlns:xlink="http://www.w3.org/1999/xlink" width="20" height="20" viewBox="0 0 20 20" fill="none">
<path d="M7.05501 12.02C6.74167 12.3017 6.38834 12.6183 5.96667 12.9908L4.22917 11.25L4.22917 12.9L5.51501 14.1858L4.04834 15.6525L4.05584 16.7783L5.18167 16.7858L6.64834 15.3192L7.93501 16.6058L9.58334 16.6058L7.84751 14.8717C8.43084 14.2117 8.88334 13.705 9.27167 13.2808C8.77167 12.98 8.25417 12.6917 7.74417 12.4067C7.51251 12.2778 7.28278 12.1489 7.05501 12.02Z"   fill="#FFFFFF" >
</path>
<path d="M17.0317 6.03833C17.0317 4.14249 16.9733 3.94833 16.9733 3.94833C16.9733 3.94833 16.7792 3.88916 14.8833 3.88916C13.0933 3.88916 12.245 5.74749 10.365 8.35083L12.4883 10.4742C15.0992 8.60166 17.0317 7.82833 17.0317 6.03833Z"   fill="#FFFFFF" >
</path>
<path d="M12.9675 15.3859L14.9367 17.3542L16.6817 15.61L14.7125 13.6409L12.9675 15.3859Z"   fill="#FFFFFF" >
</path>
<path d="M3.14588 6.36166C3.19272 6.8173 3.27994 7.26508 3.40755 7.70499C3.46247 7.89514 3.53358 8.07903 3.62088 8.25665C3.68648 8.39021 3.75981 8.51938 3.84088 8.64416C3.92301 8.77105 4.0119 8.89299 4.10755 9.00999C4.17172 9.08916 4.23922 9.16749 4.30922 9.24416C4.37922 9.32082 4.45255 9.39582 4.52922 9.46999C4.60588 9.54416 4.68338 9.61749 4.76505 9.68999L4.88838 9.79749C4.97172 9.86832 5.05922 9.93832 5.14755 10.0075C5.28005 10.1117 5.41838 10.2133 5.56005 10.3142C5.65505 10.3808 5.75172 10.4475 5.85088 10.5133L6.00005 10.6108C6.10005 10.6758 6.20172 10.7408 6.30505 10.805C6.71088 11.055 7.13838 11.305 7.57588 11.5483C8.03088 11.805 8.49255 12.0608 8.96005 12.3258L9.30005 12.5225C9.41116 12.5881 9.52366 12.6547 9.63755 12.7225L9.73838 12.7833C9.87255 12.8667 10.0059 12.95 10.1375 13.0333C10.2475 13.1033 10.3567 13.1733 10.4642 13.245C10.5717 13.3167 10.6792 13.39 10.785 13.4633C10.8909 13.5367 10.995 13.6125 11.0975 13.6883C11.5063 13.9856 11.8905 14.3117 12.25 14.6667L12.5425 14.375L12.8417 14.075L12.99 13.9275L13.0625 13.8542L13.205 13.7125L13.995 12.9217L11.9467 10.8742L9.96755 8.89416L3.89338 2.82166C3.7894 2.97583 3.69707 3.13669 3.61637 3.30423C3.53567 3.47177 3.46745 3.64424 3.41172 3.82166C3.38005 3.91416 3.34922 4.01249 3.32088 4.11749C3.26215 4.33181 3.21579 4.54876 3.18179 4.76836C3.14779 4.98796 3.12638 5.20878 3.11755 5.43082C3.11755 5.50332 3.11255 5.57749 3.11255 5.65249C3.11255 5.72749 3.11255 5.80416 3.11255 5.88166C3.11922 6.03416 3.12922 6.19582 3.14588 6.36166Z"   fill="#FFFFFF" >
</path>
</svg>
