<svg xmlns="http://www.w3.org/2000/svg" xmlns:xlink="http://www.w3.org/1999/xlink" width="32" height="32" viewBox="0 0 32 32" fill="none">
<path d="M13.4147 12.9547C13.256 12.1547 12.6893 9.27867 14.452 7.01067C15.7773 5.30667 17.72 4.83733 18.4627 4.69867C17.804 4.65067 12.1733 4.33467 8.50799 8.66667C6.41599 11.1293 6.01333 13.8667 5.91199 15.032L4.56799 13.6867C4.58133 15.1533 4.82533 19.2654 7.90133 22.3454C9.50133 23.9454 12.952 26.3654 15.0253 25.128C16.892 24.0187 16.612 20.576 16.5347 19.608C16.2787 16.4733 14.0627 16.24 13.4147 12.9547ZM12 21.5907C11.32 21.7147 10.7827 21.2334 10.5453 20.5854C10.068 19.2814 10.7613 17.164 10.8933 17.8413C11.148 19.156 12.5507 18.828 13.0053 20.136C13.2267 20.788 12.6733 21.4667 12 21.5907Z"   fill="#4080FF" >
</path>
<path d="M13.804 27.5679C14.4627 27.6159 20.0933 27.9319 23.7587 23.6053C25.8507 21.1373 26.2533 18.396 26.3547 17.236L27.6987 18.58C27.6853 17.1133 27.4413 13.0013 24.3733 9.92133C22.7733 8.32133 19.3213 5.90133 17.248 7.13867C15.3813 8.248 15.6613 11.6907 15.7387 12.6587C15.988 15.7933 18.204 16.0267 18.852 19.312C19.0107 20.112 19.5773 22.9879 17.8147 25.2559C16.4893 26.9599 14.5467 27.4293 13.804 27.5679ZM20.2667 10.676C20.9467 10.552 21.484 11.0333 21.7213 11.6813C22.1987 12.9853 21.5053 15.1027 21.3733 14.4253C21.1187 13.1107 19.716 13.4387 19.2613 12.1307C19.04 11.4787 19.6 10.8 20.2667 10.676Z"   fill="#FFFFFF" >
</path>
</svg>
