<svg xmlns="http://www.w3.org/2000/svg" xmlns:xlink="http://www.w3.org/1999/xlink" width="21.0030517578125" height="21.0030517578125" viewBox="0 0 21.0030517578125 21.0030517578125" fill="none">
<path   fill-rule="evenodd"  fill="#FFFFFF"  d="M8 0C11.315 0 14 2.685 14 6C14 9.315 11.315 12 8 12C4.685 12 2 9.315 2 6C2 2.685 4.685 0 8 0ZM8 2C10.21 2 12 3.79 12 6C12 8.21 10.21 10 8 10C5.79 10 4 8.21 4 6C4 3.79 5.79 2 8 2ZM14 10.9631C15.521 10.7452 16.7209 9.56097 16.96 8.0431C17.1991 6.52533 16.4204 5.02799 15.04 4.3531L15.6 2.4131C17.6605 3.26242 19 5.27431 19 7.5031C19 10.3474 16.8326 12.725 14 12.9831L14 10.9631ZM8 15C4.68624 15 2 17.6863 2 21L0 21C0 16.5818 3.58176 13 8 13C12.4182 13 16 16.5818 16 21L14 21C14 17.6863 11.3138 15 8 15ZM19.003 21.0031C19.003 18.6418 17.6161 16.4927 15.463 15.5231L16.283 13.7031C19.1535 14.9959 21.003 17.8548 21.003 21.0031L19.003 21.0031Z">
</path>
</svg>
