<svg width="121" height="120" viewBox="0 0 121 120" fill="none" xmlns="http://www.w3.org/2000/svg">
<path d="M70.5 40H20.5C14.985 40 10.5 44.485 10.5 50V100C10.5 105.515 14.985 110 20.5 110H70.5C76.015 110 80.5 105.515 80.5 100V50C80.5 44.485 76.015 40 70.5 40Z" fill="white" fill-opacity="0.4"/>
<path d="M100.5 10H50.5C47.8478 10 45.3043 11.0536 43.4289 12.9289C41.5536 14.8043 40.5 17.3478 40.5 20V30H80.5C83.1522 30 85.6957 31.0536 87.5711 32.9289C89.4464 34.8043 90.5 37.3478 90.5 40V80H100.5C103.152 80 105.696 78.9464 107.571 77.0711C109.446 75.1957 110.5 72.6522 110.5 70V20C110.5 17.3478 109.446 14.8043 107.571 12.9289C105.696 11.0536 103.152 10 100.5 10Z" fill="white" fill-opacity="0.4"/>
</svg>
