<?xml version="1.0" encoding="UTF-8"?>
<svg id="Layer_1" xmlns="http://www.w3.org/2000/svg" version="1.1" viewBox="0 0 512 512">
  <path class="st1" fill="#ffd96e" d="M469.49,411.77c59.73-78.47,44.54-190.51-33.94-250.25-78.47-59.73-190.51-44.54-250.25,33.94-59.73,78.47-44.54,190.51,33.94,250.25,54.76,41.68,128.6,48.19,189.81,16.72l57.48,19.14c1.21.41,2.48.62,3.76.62,6.57,0,11.91-5.32,11.91-11.89,0-.87-.09-1.74-.28-2.59l-12.43-55.93Z"/>
  <path class="st2" fill="#82bcf4" d="M196.48,29.81C91.37,29.72,6.09,114.86,6,219.97c-.04,43.82,15.05,86.3,42.7,120.29l-6.93,69.31c-.66,6.54,4.12,12.38,10.66,13.03,2.05.21,4.12-.13,6.01-.96l61.24-27.21c24.17,10.78,50.34,16.34,76.8,16.33,105.2,0,190.48-85.28,190.48-190.48S301.67,29.81,196.48,29.81Z"/>
  <g>
    <path class="st0" fill="#f2f2f2" d="M267.91,172.67h-107.14c-6.57,0-11.9-5.33-11.9-11.9s5.33-11.9,11.9-11.9h107.14c6.57,0,11.9,5.33,11.9,11.9s-5.33,11.9-11.9,11.9Z"/>
    <path class="st0" fill="#f2f2f2" d="M267.91,232.19H113.14c-6.57,0-11.9-5.33-11.9-11.9s5.33-11.9,11.9-11.9h154.76c6.57,0,11.9,5.33,11.9,11.9s-5.33,11.9-11.9,11.9Z"/>
    <path class="st0" fill="#f2f2f2" d="M208.38,291.71h-95.24c-6.57,0-11.9-5.33-11.9-11.9s5.33-11.9,11.9-11.9h95.24c6.57,0,11.9,5.33,11.9,11.9s-5.33,11.9-11.9,11.9Z"/>
    <path class="st0" fill="#f2f2f2" d="M267.91,291.71h-23.81c-6.57,0-11.9-5.33-11.9-11.9s5.33-11.9,11.9-11.9h23.81c6.57,0,11.9,5.33,11.9,11.9s-5.33,11.9-11.9,11.9Z"/>
  </g>
</svg>
