<svg xmlns="http://www.w3.org/2000/svg" xmlns:xlink="http://www.w3.org/1999/xlink" width="14" height="13" viewBox="0 0 14 13" fill="none">
<path     fill="#E35F82"  d="M0 9L0 4C0 1.79086 1.79086 0 4 0L10 0C12.2091 0 14 1.79086 14 4L14 9C14 11.2091 12.2091 13 10 13L4 13C1.79086 13 0 11.2091 0 9Z">
</path>
<path d="M4.07389 2.95245C4.06023 2.94025 4.04722 2.9274 4.03486 2.91389C4.0225 2.90039 4.01085 2.8863 3.99991 2.87162C3.98897 2.85694 3.97879 2.84174 3.96937 2.82604C3.95996 2.81034 3.95136 2.7942 3.94357 2.77763C3.93578 2.76107 3.92884 2.74414 3.92276 2.72688C3.91668 2.70961 3.91147 2.69208 3.90715 2.67429C3.90283 2.65649 3.89942 2.63853 3.89691 2.6204C3.89439 2.60226 3.8928 2.58404 3.89212 2.56575C3.89144 2.54745 3.89169 2.52917 3.89285 2.51089C3.89401 2.49262 3.89609 2.47446 3.89908 2.45639C3.90208 2.43833 3.90597 2.42046 3.91076 2.40279C3.91555 2.38512 3.92122 2.36774 3.92776 2.35064C3.93429 2.33354 3.94168 2.31681 3.94991 2.30045C3.95813 2.28409 3.96716 2.26819 3.97698 2.25274C3.98681 2.23729 3.99739 2.22238 4.00872 2.20799C4.02004 2.19361 4.03207 2.17983 4.04478 2.16666C4.0575 2.15349 4.07085 2.14099 4.08482 2.12916C4.09879 2.11733 4.11333 2.10623 4.12842 2.09587C4.14351 2.0855 4.15908 2.07592 4.17514 2.06712C4.1912 2.05832 4.20766 2.05035 4.22452 2.04321C4.24138 2.03607 4.25855 2.02979 4.27604 2.02438C4.29353 2.01897 4.31125 2.01445 4.32919 2.01082C4.34714 2.00719 4.36522 2.00447 4.38344 2.00267C4.40166 2.00086 4.41993 1.99997 4.43823 2C4.45654 2.00003 4.47481 2.00098 4.49302 2.00285C4.51123 2.00472 4.52931 2.0075 4.54724 2.01119C4.56517 2.01488 4.58287 2.01946 4.60034 2.02493C4.61782 2.03041 4.63497 2.03674 4.65181 2.04394C4.66864 2.05114 4.68507 2.05916 4.70109 2.06802C4.71712 2.07687 4.73266 2.08651 4.74772 2.09692C4.76278 2.10734 4.77727 2.11849 4.79121 2.13036C4.80514 2.14224 4.81844 2.15479 4.83111 2.168L6.00944 3.30467C6.04278 3.33689 6.07167 3.37245 6.095 3.41023L7.87722 3.41023C7.90117 3.37152 7.9295 3.33634 7.96222 3.30467L9.14111 2.168C9.16711 2.14429 9.19511 2.12328 9.22517 2.10499C9.25522 2.08669 9.28678 2.07144 9.31978 2.05925C9.35278 2.04706 9.38667 2.03814 9.42139 2.0325C9.45611 2.02686 9.49106 2.0246 9.52622 2.02572C9.56139 2.02684 9.59617 2.03132 9.63044 2.03916C9.66472 2.047 9.69794 2.05806 9.73011 2.07233C9.76228 2.0866 9.79278 2.10382 9.82161 2.12399C9.85044 2.14417 9.87706 2.16691 9.9015 2.19224C9.92594 2.21756 9.94772 2.245 9.96683 2.27453C9.98594 2.30407 10.0021 2.33517 10.0152 2.36782C10.0283 2.40048 10.0381 2.43408 10.0447 2.46864C10.0513 2.50321 10.0546 2.53808 10.0544 2.57327C10.0542 2.60845 10.0507 2.64329 10.0438 2.6778C10.0369 2.71231 10.0268 2.74583 10.0134 2.77838C10.0001 2.81092 9.98372 2.84188 9.96433 2.87126C9.94494 2.90064 9.92295 2.92788 9.89833 2.95301L9.42444 3.41023L9.77778 3.41023C9.85056 3.41023 9.92317 3.41379 9.99561 3.42093C10.068 3.42806 10.1399 3.43873 10.2113 3.45293C10.2827 3.46713 10.3532 3.48479 10.4228 3.50592C10.4925 3.52704 10.5609 3.55153 10.6282 3.57938C10.6954 3.60723 10.7612 3.63831 10.8253 3.67262C10.8895 3.70693 10.9519 3.74431 11.0124 3.78474C11.0729 3.82517 11.1313 3.86848 11.1876 3.91465C11.2438 3.96082 11.2977 4.00963 11.3491 4.0611C11.4006 4.11256 11.4494 4.16642 11.4956 4.22269C11.5417 4.27894 11.5851 4.33733 11.6255 4.39785C11.6659 4.45836 11.7033 4.52071 11.7376 4.5849C11.7719 4.64909 11.803 4.7148 11.8308 4.78204C11.8587 4.84928 11.8832 4.91772 11.9043 4.98737C11.9254 5.05702 11.9431 5.12753 11.9573 5.19892C11.9715 5.27029 11.9822 5.3422 11.9893 5.41463C11.9964 5.48706 12 5.55967 12 5.63245L12 8.69133C12 8.76411 11.9964 8.83672 11.9893 8.90917C11.9822 8.98156 11.9715 9.0535 11.9573 9.12489C11.9431 9.19628 11.9254 9.26678 11.9043 9.33639C11.8832 9.40606 11.8587 9.4745 11.8308 9.54172C11.803 9.609 11.7719 9.67472 11.7376 9.73889C11.7033 9.80306 11.6659 9.86544 11.6255 9.92594C11.5851 9.98644 11.5417 10.0448 11.4956 10.1011C11.4494 10.1574 11.4006 10.2112 11.3491 10.2627C11.2977 10.3142 11.2438 10.3629 11.1876 10.4091C11.1313 10.4553 11.0729 10.4986 11.0124 10.5391C10.9519 10.5795 10.8895 10.6169 10.8253 10.6512C10.7612 10.6854 10.6954 10.7166 10.6282 10.7444C10.5609 10.7722 10.4925 10.7967 10.4228 10.8179C10.3532 10.839 10.2827 10.8567 10.2113 10.8708C10.1399 10.8851 10.068 10.8957 9.99561 10.9028C9.92317 10.91 9.85056 10.9136 9.77778 10.9136L4.22222 10.9136C4.14944 10.9136 4.07683 10.91 4.00441 10.9028C3.93198 10.8957 3.86007 10.8851 3.78869 10.8708C3.71731 10.8567 3.64679 10.839 3.57714 10.8179C3.5075 10.7967 3.43906 10.7722 3.37182 10.7444C3.30458 10.7166 3.23886 10.6854 3.17467 10.6512C3.11049 10.6169 3.04814 10.5795 2.98762 10.5391C2.92711 10.4986 2.86872 10.4553 2.81246 10.4091C2.7562 10.3629 2.70233 10.3142 2.65087 10.2627C2.59941 10.2112 2.55059 10.1574 2.50442 10.1011C2.45825 10.0448 2.41495 9.98644 2.37451 9.92594C2.33408 9.86544 2.29671 9.80306 2.2624 9.73889C2.22809 9.67472 2.19701 9.609 2.16916 9.54172C2.1413 9.4745 2.11682 9.40606 2.09569 9.33639C2.07456 9.26678 2.0569 9.19628 2.0427 9.12489C2.0285 9.0535 2.01783 8.98156 2.0107 8.90917C2.00357 8.83672 2 8.76411 2 8.69133L2 5.63245C2 5.55967 2.00357 5.48706 2.0107 5.41463C2.01783 5.3422 2.0285 5.27029 2.0427 5.19892C2.0569 5.12753 2.07456 5.05702 2.09569 4.98737C2.11682 4.91773 2.1413 4.84928 2.16916 4.78204C2.19701 4.7148 2.22809 4.64909 2.2624 4.5849C2.29671 4.52071 2.33408 4.45836 2.37451 4.39785C2.41495 4.33733 2.45825 4.27894 2.50442 4.22269C2.55059 4.16642 2.59941 4.11256 2.65087 4.0611C2.70233 4.00963 2.7562 3.96082 2.81246 3.91465C2.86872 3.86848 2.92711 3.82517 2.98762 3.78474C3.04814 3.74431 3.11049 3.70693 3.17467 3.67263C3.23886 3.63832 3.30458 3.60723 3.37182 3.57938C3.43906 3.55153 3.5075 3.52704 3.57714 3.50592C3.64679 3.48479 3.71731 3.46713 3.78869 3.45293C3.86007 3.43873 3.93198 3.42806 4.00441 3.42093C4.07683 3.41379 4.14944 3.41023 4.22222 3.41023L4.54778 3.41023L4.07389 2.95301L4.07389 2.95245ZM4.22222 4.48245C4.18583 4.48245 4.14953 4.48423 4.11332 4.4878C4.0771 4.49137 4.04115 4.4967 4.00546 4.5038C3.96976 4.5109 3.93451 4.51973 3.89968 4.53029C3.86486 4.54086 3.83064 4.5531 3.79702 4.56703C3.7634 4.58095 3.73054 4.59649 3.69845 4.61365C3.66636 4.6308 3.63518 4.64948 3.60492 4.66971C3.57466 4.68992 3.54547 4.71157 3.51734 4.73466C3.48921 4.75774 3.46228 4.78216 3.43655 4.80789C3.41082 4.83362 3.38641 4.86054 3.36332 4.88868C3.34024 4.91681 3.31858 4.946 3.29837 4.97626C3.27815 5.00652 3.25946 5.03769 3.24231 5.06979C3.22516 5.10188 3.20962 5.13473 3.19569 5.16836C3.18176 5.20198 3.16952 5.2362 3.15896 5.27102C3.14839 5.30584 3.13956 5.3411 3.13246 5.37679C3.12536 5.41248 3.12003 5.44844 3.11646 5.48466C3.11289 5.52087 3.11111 5.55717 3.11111 5.59356L3.11111 8.73078C3.11111 8.76717 3.11289 8.8035 3.11646 8.83967C3.12003 8.87589 3.12536 8.91183 3.13246 8.94756C3.13956 8.98322 3.14839 9.0185 3.15896 9.05333C3.16952 9.08817 3.18176 9.12239 3.19569 9.156C3.20962 9.18961 3.22516 9.22244 3.24231 9.25456C3.25946 9.28661 3.27815 9.31778 3.29837 9.34805C3.31858 9.37833 3.34024 9.4075 3.36332 9.43567C3.38641 9.46378 3.41082 9.49072 3.43655 9.51644C3.46228 9.54217 3.48921 9.56661 3.51734 9.58967C3.54547 9.61278 3.57466 9.63444 3.60492 9.65461C3.63518 9.67483 3.66636 9.6935 3.69845 9.71067C3.73054 9.72783 3.7634 9.74339 3.79702 9.75733C3.83064 9.77128 3.86486 9.7835 3.89968 9.79406C3.93451 9.80461 3.96976 9.81344 4.00546 9.82056C4.04115 9.82761 4.0771 9.83294 4.11332 9.83656C4.14953 9.84011 4.18583 9.84189 4.22222 9.84189L9.77778 9.84189C9.81417 9.84189 9.8505 9.84011 9.88667 9.83656C9.92289 9.83294 9.95883 9.82761 9.99456 9.82056C10.0302 9.81344 10.0655 9.80461 10.1003 9.79406C10.1352 9.7835 10.1694 9.77128 10.203 9.75733C10.2366 9.74339 10.2694 9.72783 10.3016 9.71067C10.3336 9.6935 10.3648 9.67483 10.3951 9.65461C10.4253 9.63444 10.4545 9.61278 10.4827 9.58967C10.5108 9.56661 10.5377 9.54217 10.5634 9.51644C10.5892 9.49072 10.6136 9.46378 10.6367 9.43567C10.6598 9.4075 10.6814 9.37833 10.7016 9.34805C10.7218 9.31778 10.7405 9.28661 10.7577 9.25456C10.7748 9.22244 10.7904 9.18961 10.8043 9.156C10.8183 9.12239 10.8305 9.08817 10.8411 9.05333C10.8516 9.0185 10.8604 8.98322 10.8676 8.94756C10.8746 8.91183 10.8799 8.87589 10.8836 8.83967C10.8871 8.8035 10.8889 8.76717 10.8889 8.73078L10.8889 5.59301C10.8889 5.55662 10.8871 5.52031 10.8836 5.4841C10.8799 5.44788 10.8746 5.41193 10.8676 5.37624C10.8604 5.34054 10.8516 5.30529 10.8411 5.27047C10.8305 5.23564 10.8183 5.20142 10.8043 5.1678C10.7904 5.13418 10.7748 5.10132 10.7577 5.06923C10.7405 5.03713 10.7218 5.00596 10.7016 4.97571C10.6814 4.94544 10.6598 4.91625 10.6367 4.88812C10.6136 4.85999 10.5892 4.83306 10.5634 4.80733C10.5377 4.7816 10.5108 4.75719 10.4827 4.73411C10.4545 4.71102 10.4253 4.68937 10.3951 4.66915C10.3648 4.64893 10.3336 4.63024 10.3016 4.61309C10.2694 4.59594 10.2366 4.58039 10.203 4.56647C10.1694 4.55254 10.1352 4.5403 10.1003 4.52974C10.0655 4.51917 10.0302 4.51034 9.99456 4.50324C9.95883 4.49614 9.92289 4.49081 9.88667 4.48724C9.8505 4.48368 9.81417 4.48189 9.77778 4.48189L4.22222 4.48189L4.22222 4.48245ZM4.77778 6.64578C4.77778 6.60931 4.78133 6.57318 4.78845 6.5374C4.79557 6.50162 4.80611 6.46688 4.82007 6.43318C4.83403 6.39948 4.85114 6.36746 4.87141 6.33713C4.89167 6.3068 4.9147 6.27874 4.94049 6.25294C4.96629 6.22715 4.99436 6.20412 5.02468 6.18386C5.05501 6.16359 5.08703 6.14647 5.12073 6.13252C5.15443 6.11856 5.18917 6.10802 5.22495 6.1009C5.26073 6.09378 5.29686 6.09023 5.33333 6.09023C5.36981 6.09023 5.40594 6.09378 5.44172 6.1009C5.47749 6.10802 5.51223 6.11856 5.54593 6.13252C5.57964 6.14647 5.61166 6.16359 5.64198 6.18386C5.67231 6.20412 5.70038 6.22715 5.72617 6.25294C5.75197 6.27874 5.77499 6.3068 5.79526 6.33713C5.81553 6.36746 5.83264 6.39948 5.8466 6.43318C5.86056 6.46688 5.87109 6.50162 5.87821 6.5374C5.88533 6.57318 5.88889 6.60931 5.88889 6.64578L5.88889 7.14245C5.88889 7.17893 5.88533 7.21506 5.87821 7.25084C5.87109 7.28662 5.86056 7.32136 5.8466 7.35506C5.83264 7.38876 5.81553 7.42078 5.79526 7.45112C5.77499 7.48145 5.75197 7.50951 5.72617 7.53528C5.70038 7.56111 5.67231 7.58411 5.64198 7.60439C5.61166 7.62467 5.57964 7.64178 5.54593 7.65572C5.51223 7.66967 5.47749 7.68022 5.44172 7.68733C5.40594 7.69444 5.36981 7.698 5.33333 7.698C5.29686 7.698 5.26073 7.69444 5.22495 7.68733C5.18917 7.68022 5.15443 7.66967 5.12073 7.65572C5.08703 7.64178 5.05501 7.62467 5.02468 7.60439C4.99436 7.58411 4.96629 7.56106 4.94049 7.53528C4.9147 7.50951 4.89167 7.48145 4.87141 7.45112C4.85114 7.42078 4.83403 7.38876 4.82007 7.35506C4.80611 7.32136 4.79557 7.28662 4.78845 7.25084C4.78133 7.21506 4.77778 7.17893 4.77778 7.14245L4.77778 6.64578ZM8.66667 6.09023C8.63017 6.09023 8.59406 6.09378 8.55828 6.1009C8.5225 6.10802 8.48778 6.11856 8.45406 6.13252C8.42033 6.14647 8.38833 6.16359 8.358 6.18386C8.32767 6.20412 8.29961 6.22715 8.27383 6.25294C8.248 6.27874 8.225 6.3068 8.20472 6.33713C8.18444 6.36746 8.16733 6.39948 8.15339 6.43318C8.13944 6.46688 8.12889 6.50162 8.12178 6.5374C8.11467 6.57318 8.11111 6.60931 8.11111 6.64578L8.11111 7.14245C8.11111 7.17893 8.11467 7.21506 8.12178 7.25084C8.12889 7.28662 8.13944 7.32136 8.15339 7.35506C8.16733 7.38876 8.18444 7.42078 8.20472 7.45112C8.225 7.48145 8.248 7.50951 8.27383 7.53528C8.29961 7.56111 8.32767 7.58411 8.358 7.60439C8.38833 7.62467 8.42033 7.64178 8.45406 7.65572C8.48778 7.66967 8.5225 7.68022 8.55828 7.68733C8.59406 7.69444 8.63017 7.698 8.66667 7.698C8.70317 7.698 8.73928 7.69444 8.77505 7.68733C8.81083 7.68022 8.84556 7.66967 8.87928 7.65572C8.913 7.64178 8.945 7.62467 8.97533 7.60439C9.00567 7.58411 9.03372 7.56106 9.0595 7.53528C9.08528 7.50951 9.10833 7.48145 9.12861 7.45112C9.14889 7.42078 9.166 7.38876 9.17994 7.35506C9.19389 7.32136 9.20444 7.28662 9.21156 7.25084C9.21867 7.21506 9.22222 7.17893 9.22222 7.14245L9.22222 6.64578C9.22222 6.60931 9.21867 6.57318 9.21156 6.5374C9.20444 6.50162 9.19389 6.46688 9.17994 6.43318C9.166 6.39948 9.14889 6.36746 9.12861 6.33713C9.10833 6.3068 9.08528 6.27874 9.0595 6.25294C9.03372 6.22715 9.00567 6.20412 8.97533 6.18386C8.945 6.16359 8.913 6.14647 8.87928 6.13252C8.84556 6.11856 8.81083 6.10802 8.77505 6.1009C8.73928 6.09378 8.70317 6.09023 8.66667 6.09023Z"   fill="#FFFFFF" >
</path>
</svg>
