<svg id="图层_1" data-name="图层 1" xmlns="http://www.w3.org/2000/svg" viewBox="0 0 64 64">
  <g>
    <path d="M42,48a7.7,7.7,0,0,1-.82,3.36,9.36,9.36,0,0,1-2.22,2.9,11,11,0,0,1-3.3,2,11.47,11.47,0,0,1-3.86.76l-19,.44A10.58,10.58,0,0,1,6,55.33a8,8,0,0,1-3.15-5.57,8.23,8.23,0,0,1,2.06-6.13,10.83,10.83,0,0,1,6.21-3.49A8.67,8.67,0,0,1,14.25,34a11.2,11.2,0,0,1,7-2.67,10.49,10.49,0,0,1,7,2.26,8,8,0,0,1,3,5.92c.26,0,.53,0,.79,0a11,11,0,0,1,3.84.58,9.77,9.77,0,0,1,3.23,1.82,8.19,8.19,0,0,1,2.13,2.79A7.55,7.55,0,0,1,42,48Z" style="fill: #b0b7f7"/>
    <path d="M31,39A12.87,12.87,0,1,1,48.13,22.59a18.94,18.94,0,1,0-7.3,16.63A12.86,12.86,0,0,1,31,39Z" style="fill: #fde062"/>
    <path d="M63.11,47.42A12.91,12.91,0,0,1,50.29,60.37l-24.36.11a12.89,12.89,0,0,1-2.55-25.54,12.89,12.89,0,0,1,25.76-.31c.34,0,.68,0,1,0a12.81,12.81,0,0,1,4.94.95,13,13,0,0,1,4.2,2.78,12.84,12.84,0,0,1,2.81,4.17A12.63,12.63,0,0,1,63.11,47.42Z" style="fill: #5153fe"/>
  </g>
</svg>
